<svg width="473" height="552" viewBox="0 0 473 552" fill="none" xmlns="http://www.w3.org/2000/svg">
<rect x="44" y="55.1953" width="389" height="496.47" rx="11.7879" fill="white"/>
<path d="M83.9069 100.382L90.906 107.258C91.3972 107.75 92.1339 107.75 92.6251 107.258C93.1162 106.767 93.1162 106.03 92.6251 105.539L86.6083 99.3998L92.6251 93.2603C93.1162 92.7691 93.1162 92.0324 92.6251 91.5412C92.3795 91.2956 92.1339 91.1729 91.7655 91.1729C91.3972 91.1729 91.1516 91.2956 90.906 91.5412L83.9069 98.4175C83.4158 99.0314 83.4158 99.7682 83.9069 100.382C83.9069 100.259 83.9069 100.259 83.9069 100.382Z" fill="#121212"/>
<path d="M165.058 106.665H160.201V91.6623H165.212C166.682 91.6623 167.945 91.9626 168.999 92.5633C170.054 93.1591 170.863 94.0162 171.424 95.1346C171.991 96.2481 172.274 97.5838 172.274 99.1417C172.274 100.704 171.988 102.047 171.417 103.171C170.85 104.294 170.03 105.158 168.956 105.764C167.881 106.365 166.582 106.665 165.058 106.665ZM162.465 104.687H164.934C166.077 104.687 167.026 104.472 167.783 104.042C168.54 103.608 169.107 102.98 169.483 102.16C169.859 101.334 170.047 100.328 170.047 99.1417C170.047 97.9647 169.859 96.966 169.483 96.1455C169.112 95.3251 168.557 94.7024 167.82 94.2775C167.083 93.8526 166.167 93.6402 165.073 93.6402H162.465V104.687ZM179.763 106.892C178.654 106.892 177.699 106.655 176.898 106.182C176.102 105.703 175.487 105.031 175.052 104.167C174.622 103.298 174.408 102.279 174.408 101.112C174.408 99.9597 174.622 98.9439 175.052 98.0648C175.487 97.1858 176.092 96.4996 176.869 96.0063C177.65 95.5131 178.564 95.2665 179.609 95.2665C180.244 95.2665 180.859 95.3715 181.455 95.5815C182.051 95.7915 182.585 96.1211 183.059 96.5704C183.533 97.0197 183.906 97.6033 184.18 98.3212C184.453 99.0342 184.59 99.9011 184.59 100.922V101.698H175.646V100.057H182.444C182.444 99.4811 182.327 98.9708 182.092 98.5263C181.858 98.077 181.528 97.723 181.103 97.4641C180.683 97.2053 180.19 97.0759 179.623 97.0759C179.008 97.0759 178.471 97.2273 178.012 97.5301C177.558 97.828 177.206 98.2187 176.957 98.7022C176.713 99.1808 176.591 99.7009 176.591 100.262V101.544C176.591 102.297 176.722 102.936 176.986 103.464C177.255 103.991 177.628 104.394 178.107 104.672C178.586 104.946 179.145 105.083 179.785 105.083C180.2 105.083 180.578 105.024 180.92 104.907C181.262 104.785 181.557 104.604 181.806 104.365C182.055 104.126 182.246 103.83 182.378 103.478L184.451 103.852C184.285 104.462 183.987 104.997 183.557 105.456C183.132 105.911 182.598 106.265 181.953 106.519C181.313 106.768 180.583 106.892 179.763 106.892ZM191.76 106.892C190.671 106.892 189.733 106.646 188.947 106.152C188.166 105.654 187.565 104.968 187.145 104.094C186.725 103.22 186.515 102.218 186.515 101.09C186.515 99.9475 186.73 98.939 187.16 98.0648C187.589 97.1858 188.195 96.4996 188.976 96.0063C189.758 95.5131 190.678 95.2665 191.738 95.2665C192.593 95.2665 193.355 95.4252 194.024 95.7426C194.693 96.0552 195.232 96.4947 195.643 97.0612C196.058 97.6277 196.304 98.2895 196.382 99.0465H194.251C194.133 98.519 193.865 98.0648 193.445 97.6839C193.03 97.303 192.473 97.1125 191.775 97.1125C191.164 97.1125 190.629 97.2737 190.17 97.596C189.716 97.9134 189.362 98.3676 189.108 98.9585C188.854 99.5446 188.727 100.238 188.727 101.039C188.727 101.859 188.852 102.568 189.101 103.163C189.35 103.759 189.702 104.221 190.156 104.548C190.615 104.875 191.154 105.039 191.775 105.039C192.19 105.039 192.566 104.963 192.903 104.812C193.245 104.655 193.53 104.433 193.76 104.145C193.994 103.857 194.158 103.51 194.251 103.105H196.382C196.304 103.832 196.067 104.482 195.672 105.053C195.276 105.625 194.746 106.074 194.082 106.401C193.423 106.729 192.649 106.892 191.76 106.892ZM203.574 106.892C202.466 106.892 201.511 106.655 200.71 106.182C199.914 105.703 199.299 105.031 198.864 104.167C198.434 103.298 198.219 102.279 198.219 101.112C198.219 99.9597 198.434 98.9439 198.864 98.0648C199.299 97.1858 199.904 96.4996 200.681 96.0063C201.462 95.5131 202.375 95.2665 203.42 95.2665C204.055 95.2665 204.671 95.3715 205.267 95.5815C205.862 95.7915 206.397 96.1211 206.871 96.5704C207.345 97.0197 207.718 97.6033 207.992 98.3212C208.265 99.0342 208.402 99.9011 208.402 100.922V101.698H199.457V100.057H206.255C206.255 99.4811 206.138 98.9708 205.904 98.5263C205.669 98.077 205.34 97.723 204.915 97.4641C204.495 97.2053 204.002 97.0759 203.435 97.0759C202.82 97.0759 202.283 97.2273 201.823 97.5301C201.369 97.828 201.018 98.2187 200.769 98.7022C200.524 99.1808 200.402 99.7009 200.402 100.262V101.544C200.402 102.297 200.534 102.936 200.798 103.464C201.067 103.991 201.44 104.394 201.919 104.672C202.397 104.946 202.957 105.083 203.596 105.083C204.011 105.083 204.39 105.024 204.732 104.907C205.074 104.785 205.369 104.604 205.618 104.365C205.867 104.126 206.058 103.83 206.19 103.478L208.263 103.852C208.097 104.462 207.799 104.997 207.369 105.456C206.944 105.911 206.409 106.265 205.765 106.519C205.125 106.768 204.395 106.892 203.574 106.892ZM210.832 106.665V95.413H212.935V97.2444H213.074C213.308 96.6241 213.692 96.1406 214.224 95.7939C214.756 95.4423 215.393 95.2665 216.136 95.2665C216.888 95.2665 217.518 95.4423 218.026 95.7939C218.539 96.1455 218.917 96.629 219.161 97.2444H219.278C219.547 96.6437 219.974 96.1651 220.56 95.8086C221.146 95.4472 221.845 95.2665 222.656 95.2665C223.676 95.2665 224.509 95.5863 225.154 96.2261C225.803 96.8659 226.128 97.8304 226.128 99.1197V106.665H223.938V99.3248C223.938 98.563 223.73 98.0111 223.315 97.6692C222.9 97.3274 222.404 97.1565 221.828 97.1565C221.115 97.1565 220.56 97.3762 220.165 97.8158C219.769 98.2504 219.571 98.8096 219.571 99.4933V106.665H217.388V99.1856C217.388 98.5752 217.198 98.0844 216.817 97.7132C216.436 97.342 215.94 97.1565 215.33 97.1565C214.915 97.1565 214.532 97.2663 214.18 97.4861C213.833 97.701 213.552 98.0013 213.337 98.3872C213.127 98.773 213.022 99.2198 213.022 99.7277V106.665H210.832ZM229.239 106.665V91.6623H231.43V97.237H231.562C231.689 97.0026 231.872 96.7316 232.111 96.4239C232.35 96.1162 232.682 95.8476 233.107 95.6181C233.532 95.3837 234.094 95.2665 234.792 95.2665C235.701 95.2665 236.511 95.496 237.224 95.9551C237.937 96.4141 238.496 97.0759 238.902 97.9403C239.312 98.8047 239.517 99.8449 239.517 101.061C239.517 102.277 239.314 103.32 238.909 104.189C238.504 105.053 237.947 105.72 237.239 106.189C236.531 106.653 235.723 106.885 234.814 106.885C234.13 106.885 233.571 106.77 233.137 106.541C232.707 106.311 232.37 106.042 232.126 105.735C231.881 105.427 231.693 105.154 231.562 104.914H231.378V106.665H229.239ZM231.386 101.039C231.386 101.83 231.501 102.524 231.73 103.119C231.96 103.715 232.292 104.182 232.726 104.519C233.161 104.851 233.693 105.017 234.323 105.017C234.978 105.017 235.525 104.843 235.964 104.497C236.404 104.145 236.736 103.669 236.961 103.068C237.19 102.467 237.305 101.791 237.305 101.039C237.305 100.297 237.193 99.6301 236.968 99.0391C236.748 98.4482 236.416 97.9818 235.972 97.6399C235.532 97.2981 234.983 97.1272 234.323 97.1272C233.688 97.1272 233.151 97.2908 232.712 97.618C232.277 97.9452 231.947 98.4018 231.723 98.9878C231.498 99.5739 231.386 100.258 231.386 101.039ZM246.826 106.892C245.718 106.892 244.763 106.655 243.962 106.182C243.166 105.703 242.551 105.031 242.116 104.167C241.686 103.298 241.471 102.279 241.471 101.112C241.471 99.9597 241.686 98.9439 242.116 98.0648C242.551 97.1858 243.156 96.4996 243.933 96.0063C244.714 95.5131 245.627 95.2665 246.672 95.2665C247.307 95.2665 247.923 95.3715 248.518 95.5815C249.114 95.7915 249.649 96.1211 250.123 96.5704C250.596 97.0197 250.97 97.6033 251.244 98.3212C251.517 99.0342 251.654 99.9011 251.654 100.922V101.698H242.709V100.057H249.507C249.507 99.4811 249.39 98.9708 249.156 98.5263C248.921 98.077 248.592 97.723 248.167 97.4641C247.747 97.2053 247.254 97.0759 246.687 97.0759C246.072 97.0759 245.535 97.2273 245.075 97.5301C244.621 97.828 244.27 98.2187 244.021 98.7022C243.776 99.1808 243.654 99.7009 243.654 100.262V101.544C243.654 102.297 243.786 102.936 244.05 103.464C244.318 103.991 244.692 104.394 245.171 104.672C245.649 104.946 246.208 105.083 246.848 105.083C247.263 105.083 247.642 105.024 247.984 104.907C248.326 104.785 248.621 104.604 248.87 104.365C249.119 104.126 249.31 103.83 249.441 103.478L251.515 103.852C251.349 104.462 251.051 104.997 250.621 105.456C250.196 105.911 249.661 106.265 249.017 106.519C248.377 106.768 247.647 106.892 246.826 106.892ZM254.084 106.665V95.413H256.201V97.2004H256.318C256.523 96.5948 256.885 96.1187 257.403 95.7719C257.925 95.4203 258.516 95.2445 259.175 95.2445C259.312 95.2445 259.473 95.2494 259.659 95.2591C259.849 95.2689 259.998 95.2811 260.106 95.2958V97.3909C260.018 97.3665 259.861 97.3396 259.637 97.3103C259.412 97.2761 259.188 97.259 258.963 97.259C258.445 97.259 257.984 97.3689 257.578 97.5887C257.178 97.8035 256.86 98.1039 256.626 98.4897C256.392 98.8706 256.274 99.3053 256.274 99.7937V106.665H254.084Z" fill="#121212"/>
<path d="M267.89 106.665V105.024L272.967 99.7644C273.509 99.193 273.956 98.6924 274.308 98.2626C274.664 97.828 274.93 97.4153 275.106 97.0246C275.282 96.6339 275.37 96.2188 275.37 95.7793C275.37 95.2811 275.253 94.8513 275.018 94.49C274.784 94.1237 274.464 93.8429 274.059 93.6475C273.653 93.4473 273.197 93.3472 272.689 93.3472C272.151 93.3472 271.683 93.457 271.282 93.6768C270.882 93.8966 270.574 94.2067 270.359 94.6072C270.144 95.0076 270.037 95.4765 270.037 96.0137H267.876C267.876 95.1004 268.086 94.3019 268.506 93.6182C268.926 92.9345 269.502 92.4046 270.235 92.0286C270.967 91.6476 271.8 91.4572 272.733 91.4572C273.675 91.4572 274.505 91.6452 275.223 92.0212C275.946 92.3924 276.51 92.9003 276.915 93.545C277.321 94.1847 277.524 94.9075 277.524 95.7133C277.524 96.2701 277.419 96.8146 277.209 97.3469C277.003 97.8792 276.644 98.4726 276.132 99.127C275.619 99.7766 274.906 100.565 273.993 101.493L271.011 104.614V104.724H277.765V106.665H267.89ZM285.765 106.914C284.607 106.909 283.618 106.604 282.798 105.998C281.977 105.393 281.35 104.511 280.915 103.354C280.481 102.196 280.263 100.802 280.263 99.171C280.263 97.5447 280.481 96.1553 280.915 95.0027C281.355 93.8502 281.985 92.9711 282.805 92.3655C283.631 91.76 284.617 91.4572 285.765 91.4572C286.912 91.4572 287.897 91.7624 288.717 92.3729C289.537 92.9784 290.165 93.8575 290.6 95.0101C291.039 96.1577 291.259 97.5447 291.259 99.171C291.259 100.807 291.042 102.204 290.607 103.361C290.172 104.514 289.545 105.395 288.724 106.006C287.904 106.611 286.917 106.914 285.765 106.914ZM285.765 104.958C286.781 104.958 287.574 104.462 288.146 103.471C288.722 102.48 289.01 101.046 289.01 99.171C289.01 97.9256 288.878 96.8732 288.614 96.0137C288.356 95.1493 287.982 94.4948 287.494 94.0504C287.01 93.6011 286.434 93.3765 285.765 93.3765C284.754 93.3765 283.96 93.8746 283.384 94.8709C282.808 95.8672 282.517 97.3005 282.512 99.171C282.512 100.421 282.642 101.479 282.9 102.343C283.164 103.202 283.538 103.854 284.021 104.299C284.505 104.738 285.086 104.958 285.765 104.958ZM293.858 106.665V105.024L298.934 99.7644C299.476 99.193 299.923 98.6924 300.275 98.2626C300.631 97.828 300.898 97.4153 301.073 97.0246C301.249 96.6339 301.337 96.2188 301.337 95.7793C301.337 95.2811 301.22 94.8513 300.985 94.49C300.751 94.1237 300.431 93.8429 300.026 93.6475C299.62 93.4473 299.164 93.3472 298.656 93.3472C298.119 93.3472 297.65 93.457 297.249 93.6768C296.849 93.8966 296.541 94.2067 296.326 94.6072C296.112 95.0076 296.004 95.4765 296.004 96.0137H293.843C293.843 95.1004 294.053 94.3019 294.473 93.6182C294.893 92.9345 295.469 92.4046 296.202 92.0286C296.934 91.6476 297.767 91.4572 298.7 91.4572C299.642 91.4572 300.473 91.6452 301.191 92.0212C301.913 92.3924 302.477 92.9003 302.883 93.545C303.288 94.1847 303.491 94.9075 303.491 95.7133C303.491 96.2701 303.386 96.8146 303.176 97.3469C302.971 97.8792 302.612 98.4726 302.099 99.127C301.586 99.7766 300.873 100.565 299.96 101.493L296.978 104.614V104.724H303.733V106.665H293.858ZM306.509 106.665V105.024L311.586 99.7644C312.128 99.193 312.575 98.6924 312.926 98.2626C313.283 97.828 313.549 97.4153 313.725 97.0246C313.9 96.6339 313.988 96.2188 313.988 95.7793C313.988 95.2811 313.871 94.8513 313.637 94.49C313.402 94.1237 313.082 93.8429 312.677 93.6475C312.272 93.4473 311.815 93.3472 311.307 93.3472C310.77 93.3472 310.301 93.457 309.901 93.6768C309.5 93.8966 309.193 94.2067 308.978 94.6072C308.763 95.0076 308.655 95.4765 308.655 96.0137H306.494C306.494 95.1004 306.704 94.3019 307.124 93.6182C307.544 92.9345 308.121 92.4046 308.853 92.0286C309.586 91.6476 310.418 91.4572 311.351 91.4572C312.294 91.4572 313.124 91.6452 313.842 92.0212C314.565 92.3924 315.129 92.9003 315.534 93.545C315.939 94.1847 316.142 94.9075 316.142 95.7133C316.142 96.2701 316.037 96.8146 315.827 97.3469C315.622 97.8792 315.263 98.4726 314.75 99.127C314.237 99.7766 313.524 100.565 312.611 101.493L309.63 104.614V104.724H316.384V106.665H306.509Z" fill="#121212"/>
<path d="M393.142 98.5282L386.192 91.5905C386.078 91.4754 385.942 91.3841 385.792 91.3217C385.643 91.2594 385.482 91.2273 385.32 91.2273C385.158 91.2273 384.998 91.2594 384.848 91.3217C384.698 91.3841 384.563 91.4754 384.448 91.5905C384.22 91.8206 384.091 92.1318 384.091 92.4562C384.091 92.7806 384.22 93.0918 384.448 93.3219L390.526 99.4614L384.448 105.539C384.22 105.77 384.091 106.081 384.091 106.405C384.091 106.73 384.22 107.041 384.448 107.271C384.562 107.387 384.698 107.479 384.847 107.542C384.997 107.606 385.158 107.639 385.32 107.639C385.483 107.639 385.643 107.606 385.793 107.542C385.943 107.479 386.078 107.387 386.192 107.271L393.142 100.333C393.267 100.218 393.366 100.079 393.434 99.9233C393.502 99.768 393.537 99.6002 393.537 99.4307C393.537 99.2611 393.502 99.0934 393.434 98.938C393.366 98.7827 393.267 98.6431 393.142 98.5282Z" fill="#121212"/>
<path d="M89.6886 152.49C89.6132 151.854 89.3077 151.36 88.7719 151.008C88.236 150.657 87.5788 150.481 86.8002 150.481C86.2309 150.481 85.7328 150.573 85.3058 150.757C84.883 150.941 84.5523 151.195 84.3137 151.517C84.0793 151.839 83.9621 152.205 83.9621 152.616C83.9621 152.959 84.0437 153.254 84.207 153.501C84.3744 153.744 84.5879 153.947 84.8474 154.11C85.107 154.269 85.3791 154.401 85.6637 154.506C85.9484 154.606 86.21 154.688 86.4486 154.751L87.7546 155.102C88.0895 155.19 88.4621 155.312 88.8723 155.466C89.2867 155.621 89.6823 155.833 90.0591 156.101C90.44 156.364 90.7539 156.703 91.0009 157.118C91.2479 157.532 91.3714 158.041 91.3714 158.644C91.3714 159.338 91.1893 159.966 90.8251 160.527C90.4651 161.088 89.9377 161.534 89.2428 161.865C88.5521 162.195 87.7128 162.361 86.7249 162.361C85.804 162.361 85.0065 162.212 84.3326 161.915C83.6628 161.618 83.1354 161.203 82.7502 160.672C82.3693 160.14 82.1537 159.523 82.1035 158.819H83.7109C83.7528 159.305 83.916 159.707 84.2007 160.025C84.4895 160.339 84.8537 160.573 85.2933 160.728C85.737 160.879 86.2142 160.954 86.7249 160.954C87.3193 160.954 87.853 160.858 88.326 160.665C88.7991 160.469 89.1737 160.197 89.45 159.849C89.7263 159.498 89.8644 159.087 89.8644 158.618C89.8644 158.192 89.7451 157.844 89.5065 157.576C89.2679 157.308 88.9539 157.091 88.5646 156.923C88.1753 156.756 87.7546 156.609 87.3026 156.484L85.7202 156.032C84.7156 155.743 83.9202 155.33 83.3342 154.795C82.7481 154.259 82.4551 153.558 82.4551 152.691C82.4551 151.971 82.6498 151.343 83.0391 150.807C83.4326 150.267 83.96 149.849 84.6214 149.552C85.287 149.25 86.03 149.099 86.8505 149.099C87.6793 149.099 88.416 149.248 89.0607 149.545C89.7053 149.838 90.216 150.24 90.5928 150.751C90.9737 151.262 91.1746 151.841 91.1956 152.49H89.6886ZM99.8089 158.192V152.49H101.291V162.135H99.8089V160.502H99.7084C99.4823 160.992 99.1307 161.408 98.6535 161.752C98.1763 162.091 97.5735 162.26 96.8451 162.26C96.2424 162.26 95.7065 162.128 95.2377 161.865C94.7689 161.597 94.4005 161.195 94.1326 160.659C93.8647 160.119 93.7307 159.439 93.7307 158.618V152.49H95.2126V158.518C95.2126 159.221 95.4093 159.782 95.8028 160.201C96.2005 160.619 96.707 160.829 97.3224 160.829C97.6907 160.829 98.0654 160.735 98.4463 160.546C98.8314 160.358 99.1537 160.069 99.4133 159.68C99.677 159.29 99.8089 158.794 99.8089 158.192ZM105.487 156.333V162.135H104.005V152.49H105.436V153.997H105.562C105.788 153.507 106.131 153.114 106.592 152.817C107.052 152.515 107.647 152.365 108.375 152.365C109.028 152.365 109.599 152.499 110.089 152.766C110.579 153.03 110.96 153.432 111.232 153.972C111.504 154.508 111.64 155.186 111.64 156.006V162.135H110.158V156.107C110.158 155.349 109.962 154.759 109.568 154.336C109.175 153.909 108.635 153.696 107.948 153.696C107.475 153.696 107.052 153.798 106.68 154.003C106.311 154.209 106.02 154.508 105.807 154.901C105.593 155.295 105.487 155.772 105.487 156.333Z" fill="#F36A6A"/>
<path d="M127.442 149.275H129.301L133.671 159.95H133.822L138.192 149.275H140.051V162.135H138.594V152.365H138.468L134.45 162.135H133.043L129.025 152.365H128.899V162.135H127.442V149.275ZM146.89 162.336C146.019 162.336 145.255 162.128 144.598 161.714C143.945 161.3 143.434 160.72 143.066 159.975C142.702 159.23 142.52 158.359 142.52 157.363C142.52 156.358 142.702 155.481 143.066 154.732C143.434 153.982 143.945 153.401 144.598 152.986C145.255 152.572 146.019 152.365 146.89 152.365C147.761 152.365 148.523 152.572 149.176 152.986C149.833 153.401 150.344 153.982 150.708 154.732C151.076 155.481 151.26 156.358 151.26 157.363C151.26 158.359 151.076 159.23 150.708 159.975C150.344 160.72 149.833 161.3 149.176 161.714C148.523 162.128 147.761 162.336 146.89 162.336ZM146.89 161.005C147.551 161.005 148.096 160.835 148.523 160.496C148.95 160.157 149.266 159.711 149.471 159.158C149.676 158.606 149.778 158.007 149.778 157.363C149.778 156.718 149.676 156.117 149.471 155.561C149.266 155.004 148.95 154.554 148.523 154.211C148.096 153.867 147.551 153.696 146.89 153.696C146.229 153.696 145.684 153.867 145.258 154.211C144.831 154.554 144.514 155.004 144.309 155.561C144.104 156.117 144.002 156.718 144.002 157.363C144.002 158.007 144.104 158.606 144.309 159.158C144.514 159.711 144.831 160.157 145.258 160.496C145.684 160.835 146.229 161.005 146.89 161.005ZM155.004 156.333V162.135H153.522V152.49H154.954V153.997H155.08C155.306 153.507 155.649 153.114 156.109 152.817C156.57 152.515 157.164 152.365 157.893 152.365C158.546 152.365 159.117 152.499 159.607 152.766C160.096 153.03 160.477 153.432 160.75 153.972C161.022 154.508 161.158 155.186 161.158 156.006V162.135H159.676V156.107C159.676 155.349 159.479 154.759 159.086 154.336C158.692 153.909 158.152 153.696 157.466 153.696C156.993 153.696 156.57 153.798 156.197 154.003C155.829 154.209 155.538 154.508 155.324 154.901C155.111 155.295 155.004 155.772 155.004 156.333Z" fill="#121212"/>
<path d="M176.904 150.657V149.275H186.548V150.657H182.504V162.135H180.947V150.657H176.904ZM193.516 158.192V152.49H194.998V162.135H193.516V160.502H193.416C193.19 160.992 192.838 161.408 192.361 161.752C191.884 162.091 191.281 162.26 190.553 162.26C189.95 162.26 189.414 162.128 188.945 161.865C188.476 161.597 188.108 161.195 187.84 160.659C187.572 160.119 187.438 159.439 187.438 158.618V152.49H188.92V158.518C188.92 159.221 189.117 159.782 189.51 160.201C189.908 160.619 190.415 160.829 191.03 160.829C191.398 160.829 191.773 160.735 192.154 160.546C192.539 160.358 192.861 160.069 193.121 159.68C193.384 159.29 193.516 158.794 193.516 158.192ZM201.756 162.336C200.827 162.336 200.025 162.131 199.351 161.72C198.681 161.306 198.164 160.728 197.8 159.987C197.44 159.242 197.26 158.376 197.26 157.388C197.26 156.4 197.44 155.529 197.8 154.776C198.164 154.018 198.671 153.428 199.32 153.005C199.973 152.578 200.735 152.365 201.605 152.365C202.108 152.365 202.604 152.448 203.093 152.616C203.583 152.783 204.029 153.055 204.431 153.432C204.833 153.805 205.153 154.299 205.392 154.914C205.63 155.529 205.75 156.287 205.75 157.187V157.815H198.315V156.534H204.243C204.243 155.99 204.134 155.504 203.916 155.077C203.703 154.65 203.397 154.313 202.999 154.066C202.606 153.819 202.141 153.696 201.605 153.696C201.015 153.696 200.504 153.842 200.073 154.135C199.646 154.424 199.318 154.801 199.087 155.265C198.857 155.73 198.742 156.228 198.742 156.76V157.614C198.742 158.342 198.868 158.96 199.119 159.466C199.374 159.968 199.728 160.352 200.18 160.615C200.632 160.875 201.157 161.005 201.756 161.005C202.145 161.005 202.497 160.95 202.811 160.841C203.129 160.728 203.403 160.561 203.633 160.339C203.864 160.113 204.042 159.832 204.167 159.498L205.599 159.899C205.448 160.385 205.195 160.812 204.839 161.18C204.483 161.545 204.044 161.829 203.52 162.034C202.997 162.235 202.409 162.336 201.756 162.336Z" fill="#121212"/>
<path d="M223.813 162.135L220.297 149.275H221.879L224.567 159.749H224.692L227.43 149.275H229.188L231.926 159.749H232.051L234.739 149.275H236.321L232.805 162.135H231.197L228.359 151.887H228.259L225.421 162.135H223.813ZM241.206 162.336C240.277 162.336 239.475 162.131 238.801 161.72C238.132 161.306 237.615 160.728 237.25 159.987C236.89 159.242 236.71 158.376 236.71 157.388C236.71 156.4 236.89 155.529 237.25 154.776C237.615 154.018 238.121 153.428 238.77 153.005C239.423 152.578 240.185 152.365 241.055 152.365C241.558 152.365 242.054 152.448 242.544 152.616C243.033 152.783 243.479 153.055 243.881 153.432C244.283 153.805 244.603 154.299 244.842 154.914C245.08 155.529 245.2 156.287 245.2 157.187V157.815H237.765V156.534H243.693C243.693 155.99 243.584 155.504 243.366 155.077C243.153 154.65 242.847 154.313 242.449 154.066C242.056 153.819 241.591 153.696 241.055 153.696C240.465 153.696 239.955 153.842 239.523 154.135C239.096 154.424 238.768 154.801 238.538 155.265C238.307 155.73 238.192 156.228 238.192 156.76V157.614C238.192 158.342 238.318 158.96 238.569 159.466C238.824 159.968 239.178 160.352 239.63 160.615C240.082 160.875 240.608 161.005 241.206 161.005C241.595 161.005 241.947 160.95 242.261 160.841C242.579 160.728 242.853 160.561 243.084 160.339C243.314 160.113 243.492 159.832 243.617 159.498L245.049 159.899C244.898 160.385 244.645 160.812 244.289 161.18C243.933 161.545 243.494 161.829 242.971 162.034C242.447 162.235 241.859 162.336 241.206 162.336ZM251.096 162.336C250.292 162.336 249.582 162.133 248.967 161.727C248.352 161.316 247.87 160.739 247.523 159.994C247.175 159.244 247.002 158.359 247.002 157.338C247.002 156.325 247.175 155.445 247.523 154.7C247.87 153.955 248.354 153.38 248.973 152.974C249.593 152.568 250.309 152.365 251.121 152.365C251.749 152.365 252.245 152.469 252.609 152.679C252.977 152.884 253.258 153.118 253.45 153.382C253.647 153.641 253.8 153.855 253.909 154.022H254.034V149.275H255.516V162.135H254.084V160.653H253.909C253.8 160.829 253.645 161.051 253.444 161.318C253.243 161.582 252.956 161.819 252.584 162.028C252.211 162.233 251.715 162.336 251.096 162.336ZM251.297 161.005C251.891 161.005 252.393 160.85 252.804 160.54C253.214 160.226 253.526 159.793 253.739 159.24C253.953 158.683 254.059 158.041 254.059 157.312C254.059 156.592 253.955 155.962 253.745 155.422C253.536 154.878 253.226 154.455 252.816 154.154C252.406 153.849 251.899 153.696 251.297 153.696C250.669 153.696 250.145 153.857 249.727 154.179C249.312 154.497 249.001 154.931 248.791 155.479C248.586 156.023 248.484 156.634 248.484 157.312C248.484 157.999 248.588 158.623 248.798 159.184C249.011 159.74 249.325 160.184 249.739 160.515C250.158 160.841 250.677 161.005 251.297 161.005Z" fill="#121212"/>
<path d="M270.473 150.657V149.275H280.118V150.657H276.074V162.135H274.517V150.657H270.473ZM283.802 156.333V162.135H282.32V149.275H283.802V153.997H283.927C284.153 153.499 284.492 153.103 284.945 152.81C285.401 152.513 286.008 152.365 286.765 152.365C287.423 152.365 287.998 152.496 288.492 152.76C288.986 153.02 289.369 153.419 289.641 153.959C289.918 154.495 290.056 155.178 290.056 156.006V162.135H288.574V156.107C288.574 155.341 288.375 154.749 287.977 154.33C287.584 153.907 287.038 153.696 286.339 153.696C285.853 153.696 285.418 153.798 285.032 154.003C284.652 154.209 284.35 154.508 284.128 154.901C283.911 155.295 283.802 155.772 283.802 156.333ZM298.845 158.192V152.49H300.327V162.135H298.845V160.502H298.744C298.518 160.992 298.167 161.408 297.689 161.752C297.212 162.091 296.609 162.26 295.881 162.26C295.278 162.26 294.742 162.128 294.274 161.865C293.805 161.597 293.436 161.195 293.169 160.659C292.901 160.119 292.767 159.439 292.767 158.618V152.49H294.249V158.518C294.249 159.221 294.445 159.782 294.839 160.201C295.236 160.619 295.743 160.829 296.358 160.829C296.727 160.829 297.101 160.735 297.482 160.546C297.867 160.358 298.19 160.069 298.449 159.68C298.713 159.29 298.845 158.794 298.845 158.192Z" fill="#121212"/>
<path d="M323.836 162.135V149.275H331.547V150.657H325.393V155.002H330.969V156.383H325.393V162.135H323.836ZM333.909 162.135V152.49H335.341V153.947H335.441C335.617 153.47 335.935 153.082 336.396 152.785C336.856 152.488 337.375 152.339 337.953 152.339C338.062 152.339 338.198 152.342 338.361 152.346C338.524 152.35 338.648 152.356 338.731 152.365V153.872C338.681 153.859 338.566 153.84 338.386 153.815C338.21 153.786 338.024 153.771 337.827 153.771C337.358 153.771 336.94 153.869 336.571 154.066C336.207 154.259 335.918 154.527 335.705 154.87C335.496 155.209 335.391 155.596 335.391 156.032V162.135H333.909ZM340.488 162.135V152.49H341.97V162.135H340.488ZM341.241 150.883C340.953 150.883 340.703 150.784 340.494 150.588C340.289 150.391 340.186 150.154 340.186 149.878C340.186 149.602 340.289 149.365 340.494 149.169C340.703 148.972 340.953 148.873 341.241 148.873C341.53 148.873 341.777 148.972 341.982 149.169C342.192 149.365 342.296 149.602 342.296 149.878C342.296 150.154 342.192 150.391 341.982 150.588C341.777 150.784 341.53 150.883 341.241 150.883Z" fill="#121212"/>
<path d="M374.713 152.49C374.638 151.854 374.332 151.36 373.796 151.008C373.26 150.657 372.603 150.481 371.825 150.481C371.255 150.481 370.757 150.573 370.33 150.757C369.907 150.941 369.577 151.195 369.338 151.517C369.104 151.839 368.987 152.205 368.987 152.616C368.987 152.959 369.068 153.254 369.231 153.501C369.399 153.744 369.612 153.947 369.872 154.11C370.131 154.269 370.404 154.401 370.688 154.506C370.973 154.606 371.234 154.688 371.473 154.751L372.779 155.102C373.114 155.19 373.487 155.312 373.897 155.466C374.311 155.621 374.707 155.833 375.083 156.101C375.464 156.364 375.778 156.703 376.025 157.118C376.272 157.532 376.396 158.041 376.396 158.644C376.396 159.338 376.214 159.966 375.85 160.527C375.49 161.088 374.962 161.534 374.267 161.865C373.577 162.195 372.737 162.361 371.749 162.361C370.828 162.361 370.031 162.212 369.357 161.915C368.687 161.618 368.16 161.203 367.775 160.672C367.394 160.14 367.178 159.523 367.128 158.819H368.735C368.777 159.305 368.94 159.707 369.225 160.025C369.514 160.339 369.878 160.573 370.318 160.728C370.761 160.879 371.239 160.954 371.749 160.954C372.344 160.954 372.877 160.858 373.35 160.665C373.823 160.469 374.198 160.197 374.474 159.849C374.751 159.498 374.889 159.087 374.889 158.618C374.889 158.192 374.77 157.844 374.531 157.576C374.292 157.308 373.978 157.091 373.589 156.923C373.2 156.756 372.779 156.609 372.327 156.484L370.745 156.032C369.74 155.743 368.945 155.33 368.359 154.795C367.773 154.259 367.48 153.558 367.48 152.691C367.48 151.971 367.674 151.343 368.064 150.807C368.457 150.267 368.984 149.849 369.646 149.552C370.311 149.25 371.054 149.099 371.875 149.099C372.704 149.099 373.44 149.248 374.085 149.545C374.73 149.838 375.24 150.24 375.617 150.751C375.998 151.262 376.199 151.841 376.22 152.49H374.713ZM381.593 162.361C380.982 162.361 380.427 162.246 379.929 162.015C379.431 161.781 379.036 161.444 378.743 161.005C378.45 160.561 378.303 160.025 378.303 159.397C378.303 158.845 378.412 158.397 378.63 158.053C378.847 157.706 379.138 157.434 379.502 157.237C379.867 157.04 380.268 156.894 380.708 156.798C381.152 156.697 381.597 156.618 382.045 156.559C382.631 156.484 383.107 156.427 383.471 156.389C383.839 156.348 384.107 156.279 384.274 156.182C384.446 156.086 384.532 155.919 384.532 155.68V155.63C384.532 155.01 384.362 154.529 384.023 154.185C383.688 153.842 383.18 153.671 382.497 153.671C381.79 153.671 381.235 153.825 380.834 154.135C380.432 154.445 380.149 154.776 379.986 155.127L378.579 154.625C378.831 154.039 379.165 153.583 379.584 153.256C380.007 152.925 380.467 152.695 380.965 152.565C381.468 152.432 381.962 152.365 382.447 152.365C382.757 152.365 383.113 152.402 383.515 152.478C383.921 152.549 384.312 152.697 384.689 152.923C385.07 153.149 385.386 153.491 385.637 153.947C385.888 154.403 386.014 155.014 386.014 155.78V162.135H384.532V160.829H384.457C384.356 161.038 384.189 161.262 383.954 161.501C383.72 161.739 383.408 161.942 383.019 162.11C382.629 162.277 382.154 162.361 381.593 162.361ZM381.819 161.03C382.405 161.03 382.899 160.915 383.301 160.684C383.707 160.454 384.013 160.157 384.218 159.793C384.427 159.428 384.532 159.045 384.532 158.644V157.287C384.469 157.363 384.331 157.432 384.117 157.495C383.908 157.553 383.665 157.605 383.389 157.652C383.117 157.693 382.851 157.731 382.592 157.765C382.336 157.794 382.129 157.819 381.97 157.84C381.585 157.89 381.225 157.972 380.89 158.085C380.559 158.194 380.291 158.359 380.086 158.581C379.885 158.798 379.785 159.096 379.785 159.472C379.785 159.987 379.975 160.377 380.356 160.64C380.741 160.9 381.229 161.03 381.819 161.03ZM392.913 152.49V153.746H387.915V152.49H392.913ZM389.371 150.179H390.853V159.372C390.853 159.791 390.914 160.105 391.035 160.314C391.161 160.519 391.32 160.657 391.513 160.728C391.709 160.795 391.917 160.829 392.134 160.829C392.298 160.829 392.431 160.82 392.536 160.804C392.641 160.783 392.724 160.766 392.787 160.753L393.089 162.085C392.988 162.122 392.848 162.16 392.668 162.198C392.488 162.239 392.26 162.26 391.984 162.26C391.565 162.26 391.155 162.17 390.753 161.99C390.355 161.81 390.025 161.536 389.761 161.168C389.501 160.799 389.371 160.335 389.371 159.774V150.179Z" fill="#F36A6A"/>
<path d="M287.394 202.533V215.392H285.837V204.165H285.761L282.622 206.25V204.668L285.837 202.533H287.394Z" fill="#858585"/>
<path d="M328.781 215.392V214.262L333.026 209.616C333.524 209.071 333.934 208.598 334.256 208.197C334.579 207.79 334.817 207.41 334.972 207.054C335.131 206.694 335.211 206.317 335.211 205.924C335.211 205.471 335.102 205.08 334.884 204.749C334.671 204.419 334.378 204.163 334.005 203.983C333.633 203.803 333.214 203.713 332.749 203.713C332.255 203.713 331.824 203.816 331.456 204.021C331.092 204.222 330.809 204.504 330.608 204.869C330.411 205.233 330.313 205.66 330.313 206.15H328.831C328.831 205.396 329.005 204.735 329.352 204.165C329.7 203.596 330.173 203.152 330.771 202.834C331.374 202.516 332.05 202.357 332.8 202.357C333.553 202.357 334.221 202.516 334.803 202.834C335.384 203.152 335.841 203.581 336.171 204.121C336.502 204.661 336.667 205.262 336.667 205.924C336.667 206.397 336.582 206.859 336.41 207.311C336.243 207.759 335.95 208.259 335.531 208.812C335.117 209.36 334.541 210.03 333.804 210.821L330.916 213.91V214.011H336.894V215.392H328.781Z" fill="#858585"/>
<path d="M380.002 215.568C379.173 215.568 378.434 215.426 377.785 215.141C377.141 214.857 376.628 214.461 376.247 213.954C375.87 213.444 375.665 212.851 375.631 212.177H377.214C377.247 212.592 377.39 212.95 377.641 213.251C377.892 213.548 378.221 213.779 378.627 213.942C379.033 214.105 379.483 214.187 379.977 214.187C380.529 214.187 381.019 214.09 381.446 213.898C381.873 213.705 382.208 213.437 382.451 213.094C382.693 212.751 382.815 212.353 382.815 211.901C382.815 211.428 382.697 211.012 382.463 210.652C382.229 210.287 381.885 210.003 381.433 209.798C380.981 209.593 380.429 209.49 379.776 209.49H378.746V208.109H379.776C380.286 208.109 380.734 208.017 381.119 207.832C381.509 207.648 381.812 207.389 382.03 207.054C382.252 206.719 382.363 206.325 382.363 205.873C382.363 205.438 382.266 205.059 382.074 204.737C381.881 204.414 381.609 204.163 381.257 203.983C380.91 203.803 380.5 203.713 380.027 203.713C379.583 203.713 379.164 203.795 378.771 203.958C378.382 204.117 378.064 204.35 377.817 204.655C377.57 204.957 377.436 205.321 377.415 205.748H375.908C375.933 205.074 376.136 204.484 376.517 203.977C376.898 203.466 377.396 203.069 378.011 202.784C378.631 202.499 379.311 202.357 380.052 202.357C380.847 202.357 381.53 202.518 382.099 202.841C382.668 203.159 383.106 203.579 383.411 204.103C383.717 204.626 383.87 205.191 383.87 205.798C383.87 206.522 383.679 207.14 383.298 207.65C382.921 208.161 382.409 208.515 381.76 208.711V208.812C382.572 208.946 383.206 209.291 383.662 209.848C384.119 210.4 384.347 211.085 384.347 211.901C384.347 212.6 384.156 213.228 383.775 213.785C383.399 214.337 382.884 214.773 382.231 215.091C381.578 215.409 380.835 215.568 380.002 215.568Z" fill="#858585"/>
<path d="M92.4028 265.801V264.52L98.054 255.578H98.9833V257.562H98.3554L94.0856 264.319V264.419H101.696V265.801H92.4028ZM98.4558 268.438V265.411V264.815V255.578H99.9377V268.438H98.4558Z" fill="#F36A6A"/>
<path d="M144.168 268.614C143.431 268.614 142.768 268.467 142.177 268.174C141.587 267.881 141.114 267.479 140.758 266.968C140.402 266.458 140.208 265.876 140.174 265.223H141.681C141.74 265.805 142.004 266.286 142.472 266.667C142.945 267.044 143.511 267.232 144.168 267.232C144.695 267.232 145.164 267.109 145.574 266.862C145.989 266.615 146.313 266.276 146.547 265.844C146.786 265.409 146.905 264.917 146.905 264.369C146.905 263.808 146.782 263.308 146.535 262.868C146.292 262.425 145.957 262.075 145.53 261.82C145.103 261.564 144.616 261.435 144.067 261.43C143.674 261.426 143.27 261.487 142.855 261.612C142.441 261.734 142.1 261.891 141.832 262.083L140.375 261.908L141.154 255.578H147.835V256.96H142.46L142.008 260.752H142.083C142.347 260.543 142.678 260.369 143.075 260.231C143.473 260.093 143.887 260.024 144.318 260.024C145.105 260.024 145.807 260.212 146.422 260.589C147.041 260.961 147.527 261.472 147.879 262.121C148.234 262.77 148.412 263.511 148.412 264.344C148.412 265.164 148.228 265.897 147.86 266.541C147.496 267.182 146.993 267.688 146.353 268.061C145.712 268.429 144.984 268.614 144.168 268.614Z" fill="#858585"/>
<path d="M191.433 268.614C190.905 268.605 190.378 268.505 189.85 268.312C189.323 268.12 188.841 267.795 188.406 267.339C187.971 266.878 187.621 266.257 187.358 265.474C187.094 264.687 186.962 263.699 186.962 262.51C186.962 261.372 187.069 260.363 187.282 259.484C187.496 258.601 187.805 257.858 188.211 257.255C188.618 256.648 189.107 256.187 189.681 255.873C190.258 255.559 190.909 255.402 191.634 255.402C192.354 255.402 192.994 255.547 193.555 255.836C194.12 256.12 194.581 256.518 194.936 257.029C195.292 257.539 195.522 258.128 195.627 258.793H194.095C193.953 258.215 193.676 257.736 193.266 257.355C192.856 256.974 192.312 256.784 191.634 256.784C190.637 256.784 189.852 257.217 189.279 258.084C188.71 258.95 188.423 260.166 188.419 261.732H188.519C188.754 261.376 189.032 261.072 189.354 260.821C189.681 260.566 190.041 260.369 190.434 260.231C190.828 260.093 191.244 260.024 191.684 260.024C192.421 260.024 193.094 260.208 193.706 260.576C194.317 260.941 194.807 261.445 195.175 262.09C195.543 262.73 195.727 263.465 195.727 264.294C195.727 265.089 195.55 265.817 195.194 266.479C194.838 267.136 194.338 267.659 193.693 268.048C193.053 268.434 192.299 268.622 191.433 268.614ZM191.433 267.232C191.96 267.232 192.433 267.1 192.852 266.837C193.274 266.573 193.607 266.219 193.85 265.775C194.097 265.332 194.221 264.838 194.221 264.294C194.221 263.762 194.101 263.278 193.863 262.843C193.628 262.404 193.304 262.054 192.889 261.795C192.479 261.535 192.01 261.405 191.483 261.405C191.085 261.405 190.715 261.485 190.371 261.644C190.028 261.799 189.727 262.012 189.467 262.284C189.212 262.556 189.011 262.868 188.864 263.22C188.718 263.567 188.645 263.934 188.645 264.319C188.645 264.829 188.764 265.307 189.003 265.75C189.245 266.194 189.576 266.552 189.995 266.824C190.418 267.096 190.897 267.232 191.433 267.232Z" fill="#858585"/>
<path d="M235.182 268.438L240.934 257.06V256.96H234.303V255.578H242.541V257.035L236.815 268.438H235.182Z" fill="#858585"/>
<path d="M285.654 268.614C284.791 268.614 284.03 268.461 283.368 268.155C282.711 267.845 282.198 267.421 281.83 266.881C281.461 266.336 281.279 265.717 281.284 265.022C281.279 264.478 281.386 263.975 281.604 263.515C281.821 263.05 282.119 262.663 282.495 262.353C282.876 262.039 283.301 261.841 283.77 261.757V261.681C283.155 261.522 282.665 261.177 282.301 260.645C281.937 260.11 281.757 259.501 281.761 258.818C281.757 258.165 281.922 257.581 282.257 257.066C282.592 256.551 283.052 256.145 283.638 255.848C284.228 255.551 284.9 255.402 285.654 255.402C286.399 255.402 287.064 255.551 287.65 255.848C288.237 256.145 288.697 256.551 289.032 257.066C289.371 257.581 289.543 258.165 289.547 258.818C289.543 259.501 289.356 260.11 288.988 260.645C288.624 261.177 288.14 261.522 287.537 261.681V261.757C288.002 261.841 288.421 262.039 288.793 262.353C289.166 262.663 289.463 263.05 289.685 263.515C289.907 263.975 290.02 264.478 290.024 265.022C290.02 265.717 289.831 266.336 289.459 266.881C289.09 267.421 288.578 267.845 287.92 268.155C287.267 268.461 286.512 268.614 285.654 268.614ZM285.654 267.232C286.236 267.232 286.738 267.138 287.161 266.95C287.583 266.761 287.91 266.495 288.14 266.152C288.37 265.809 288.488 265.407 288.492 264.947C288.488 264.461 288.362 264.032 288.115 263.659C287.868 263.287 287.531 262.994 287.104 262.78C286.681 262.567 286.198 262.46 285.654 262.46C285.105 262.46 284.616 262.567 284.184 262.78C283.757 262.994 283.42 263.287 283.173 263.659C282.931 264.032 282.811 264.461 282.816 264.947C282.811 265.407 282.922 265.809 283.148 266.152C283.379 266.495 283.707 266.761 284.134 266.95C284.561 267.138 285.068 267.232 285.654 267.232ZM285.654 261.129C286.114 261.129 286.522 261.037 286.878 260.853C287.238 260.668 287.521 260.411 287.726 260.08C287.931 259.75 288.036 259.362 288.04 258.919C288.036 258.483 287.933 258.105 287.732 257.782C287.531 257.456 287.253 257.205 286.897 257.029C286.541 256.849 286.127 256.759 285.654 256.759C285.172 256.759 284.752 256.849 284.392 257.029C284.032 257.205 283.753 257.456 283.557 257.782C283.36 258.105 283.263 258.483 283.268 258.919C283.263 259.362 283.362 259.75 283.563 260.08C283.768 260.411 284.05 260.668 284.41 260.853C284.77 261.037 285.185 261.129 285.654 261.129Z" fill="#858585"/>
<circle cx="300.386" cy="247.703" r="2.94697" fill="#62D0A2"/>
<path d="M332.711 255.402C333.238 255.407 333.766 255.507 334.293 255.704C334.821 255.901 335.302 256.227 335.737 256.683C336.173 257.135 336.522 257.753 336.786 258.536C337.05 259.318 337.182 260.3 337.182 261.481C337.182 262.623 337.073 263.638 336.855 264.526C336.642 265.409 336.332 266.154 335.926 266.761C335.524 267.368 335.034 267.829 334.456 268.143C333.883 268.457 333.234 268.614 332.51 268.614C331.79 268.614 331.147 268.471 330.582 268.187C330.021 267.898 329.561 267.498 329.201 266.987C328.845 266.472 328.617 265.876 328.516 265.198H330.049C330.187 265.788 330.461 266.276 330.871 266.661C331.286 267.042 331.832 267.232 332.51 267.232C333.502 267.232 334.285 266.799 334.858 265.932C335.436 265.066 335.725 263.841 335.725 262.259H335.624C335.39 262.611 335.112 262.914 334.789 263.17C334.467 263.425 334.109 263.622 333.716 263.76C333.322 263.898 332.903 263.967 332.46 263.967C331.723 263.967 331.047 263.785 330.432 263.421C329.82 263.052 329.331 262.548 328.962 261.908C328.598 261.263 328.416 260.526 328.416 259.697C328.416 258.91 328.592 258.19 328.943 257.537C329.299 256.88 329.797 256.357 330.438 255.968C331.083 255.578 331.84 255.39 332.711 255.402ZM332.711 256.784C332.183 256.784 331.708 256.916 331.286 257.179C330.867 257.439 330.534 257.791 330.287 258.234C330.044 258.674 329.923 259.161 329.923 259.697C329.923 260.233 330.04 260.721 330.275 261.16C330.513 261.596 330.838 261.943 331.248 262.203C331.662 262.458 332.133 262.586 332.661 262.586C333.058 262.586 333.429 262.508 333.772 262.353C334.115 262.194 334.415 261.979 334.67 261.707C334.93 261.43 335.133 261.118 335.279 260.771C335.426 260.419 335.499 260.053 335.499 259.672C335.499 259.17 335.377 258.699 335.135 258.259C334.896 257.82 334.565 257.464 334.143 257.192C333.724 256.92 333.247 256.784 332.711 256.784Z" fill="#858585"/>
<path d="M376.171 255.578V268.438H374.614V257.211H374.539L371.399 259.295V257.713L374.614 255.578H376.171ZM384.064 268.614C383.118 268.614 382.312 268.356 381.647 267.841C380.981 267.322 380.473 266.571 380.121 265.587C379.769 264.599 379.594 263.406 379.594 262.008C379.594 260.618 379.769 259.431 380.121 258.448C380.477 257.46 380.987 256.706 381.653 256.187C382.323 255.664 383.127 255.402 384.064 255.402C385.002 255.402 385.804 255.664 386.469 256.187C387.139 256.706 387.65 257.46 388.001 258.448C388.357 259.431 388.535 260.618 388.535 262.008C388.535 263.406 388.359 264.599 388.007 265.587C387.656 266.571 387.147 267.322 386.482 267.841C385.816 268.356 385.01 268.614 384.064 268.614ZM384.064 267.232C385.002 267.232 385.73 266.78 386.249 265.876C386.768 264.972 387.028 263.682 387.028 262.008C387.028 260.895 386.909 259.946 386.67 259.164C386.436 258.381 386.097 257.784 385.653 257.374C385.213 256.964 384.684 256.759 384.064 256.759C383.135 256.759 382.409 257.217 381.885 258.134C381.362 259.046 381.101 260.338 381.101 262.008C381.101 263.121 381.218 264.068 381.452 264.846C381.687 265.625 382.024 266.217 382.463 266.623C382.907 267.029 383.441 267.232 384.064 267.232Z" fill="#F36A6A"/>
<path d="M94.6782 308.624V321.483H93.121V310.256H93.0457L89.9061 312.341V310.759L93.121 308.624H94.6782ZM102.897 308.624V321.483H101.34V310.256H101.265L98.1254 312.341V310.759L101.34 308.624H102.897Z" fill="#F36A6A"/>
<path d="M134.546 321.483V320.353L138.791 315.706C139.289 315.162 139.699 314.689 140.021 314.287C140.344 313.881 140.582 313.5 140.737 313.145C140.896 312.785 140.976 312.408 140.976 312.014C140.976 311.562 140.867 311.171 140.649 310.84C140.436 310.509 140.143 310.254 139.77 310.074C139.397 309.894 138.979 309.804 138.514 309.804C138.02 309.804 137.589 309.907 137.221 310.112C136.857 310.313 136.574 310.595 136.373 310.959C136.176 311.324 136.078 311.751 136.078 312.24H134.596C134.596 311.487 134.77 310.826 135.117 310.256C135.465 309.687 135.938 309.243 136.536 308.925C137.139 308.607 137.815 308.448 138.564 308.448C139.318 308.448 139.986 308.607 140.567 308.925C141.149 309.243 141.606 309.672 141.936 310.212C142.267 310.752 142.432 311.353 142.432 312.014C142.432 312.487 142.347 312.95 142.175 313.402C142.007 313.85 141.714 314.35 141.296 314.903C140.881 315.451 140.306 316.121 139.569 316.912L136.681 320.001V320.102H142.658V321.483H134.546ZM149.597 321.659C148.768 321.659 148.029 321.517 147.38 321.232C146.736 320.947 146.223 320.552 145.842 320.045C145.465 319.535 145.26 318.942 145.227 318.268H146.809C146.842 318.683 146.985 319.041 147.236 319.342C147.487 319.639 147.816 319.869 148.222 320.033C148.628 320.196 149.078 320.278 149.572 320.278C150.124 320.278 150.614 320.181 151.041 319.989C151.468 319.796 151.803 319.528 152.046 319.185C152.288 318.842 152.41 318.444 152.41 317.992C152.41 317.519 152.293 317.102 152.058 316.742C151.824 316.378 151.48 316.094 151.028 315.889C150.576 315.683 150.024 315.581 149.371 315.581H148.341V314.199H149.371C149.881 314.199 150.329 314.107 150.714 313.923C151.104 313.739 151.407 313.479 151.625 313.145C151.847 312.81 151.958 312.416 151.958 311.964C151.958 311.529 151.861 311.15 151.669 310.828C151.476 310.505 151.204 310.254 150.853 310.074C150.505 309.894 150.095 309.804 149.622 309.804C149.178 309.804 148.76 309.886 148.366 310.049C147.977 310.208 147.659 310.44 147.412 310.746C147.165 311.047 147.031 311.412 147.01 311.839H145.503C145.528 311.165 145.731 310.574 146.112 310.068C146.493 309.557 146.991 309.159 147.606 308.875C148.226 308.59 148.906 308.448 149.647 308.448C150.442 308.448 151.125 308.609 151.694 308.931C152.263 309.249 152.701 309.67 153.006 310.193C153.312 310.717 153.465 311.282 153.465 311.889C153.465 312.613 153.274 313.23 152.893 313.741C152.517 314.252 152.004 314.605 151.355 314.802V314.903C152.167 315.037 152.801 315.382 153.257 315.939C153.714 316.491 153.942 317.176 153.942 317.992C153.942 318.691 153.751 319.319 153.37 319.876C152.994 320.428 152.479 320.864 151.826 321.182C151.173 321.5 150.43 321.659 149.597 321.659Z" fill="#858585"/>
<path d="M187.462 308.624V321.483H185.905V310.256H185.829L182.69 312.341V310.759L185.905 308.624H187.462ZM195.505 321.659C194.677 321.659 193.938 321.517 193.289 321.232C192.644 320.947 192.131 320.552 191.75 320.045C191.374 319.535 191.169 318.942 191.135 318.268H192.717C192.751 318.683 192.893 319.041 193.144 319.342C193.396 319.639 193.724 319.869 194.13 320.033C194.536 320.196 194.986 320.278 195.48 320.278C196.033 320.278 196.523 320.181 196.95 319.989C197.377 319.796 197.711 319.528 197.954 319.185C198.197 318.842 198.318 318.444 198.318 317.992C198.318 317.519 198.201 317.102 197.967 316.742C197.732 316.378 197.389 316.094 196.937 315.889C196.485 315.683 195.932 315.581 195.279 315.581H194.25V314.199H195.279C195.79 314.199 196.238 314.107 196.623 313.923C197.012 313.739 197.316 313.479 197.534 313.145C197.755 312.81 197.866 312.416 197.866 311.964C197.866 311.529 197.77 311.15 197.577 310.828C197.385 310.505 197.113 310.254 196.761 310.074C196.414 309.894 196.004 309.804 195.53 309.804C195.087 309.804 194.668 309.886 194.275 310.049C193.885 310.208 193.567 310.44 193.32 310.746C193.073 311.047 192.939 311.412 192.918 311.839H191.411C191.437 311.165 191.64 310.574 192.02 310.068C192.401 309.557 192.9 309.159 193.515 308.875C194.134 308.59 194.815 308.448 195.556 308.448C196.351 308.448 197.033 308.609 197.603 308.931C198.172 309.249 198.609 309.67 198.915 310.193C199.22 310.717 199.373 311.282 199.373 311.889C199.373 312.613 199.183 313.23 198.802 313.741C198.425 314.252 197.912 314.605 197.264 314.802V314.903C198.076 315.037 198.71 315.382 199.166 315.939C199.622 316.491 199.85 317.176 199.85 317.992C199.85 318.691 199.66 319.319 199.279 319.876C198.902 320.428 198.387 320.864 197.734 321.182C197.081 321.5 196.338 321.659 195.505 321.659Z" fill="#858585"/>
<path d="M234.57 308.624V321.483H233.013V310.256H232.938L229.798 312.341V310.759L233.013 308.624H234.57ZM237.967 318.846V317.565L243.618 308.624H244.548V310.608H243.92L239.65 317.364V317.465H247.26V318.846H237.967ZM244.02 321.483V318.457V317.86V308.624H245.502V321.483H244.02Z" fill="#858585"/>
<circle cx="253.235" cy="300.748" r="2.94697" fill="#62D0A2"/>
<path d="M282.182 308.624V321.483H279.853V310.89H279.777L276.77 312.812V310.677L279.966 308.624H282.182ZM289.918 321.659C289.081 321.659 288.331 321.502 287.67 321.188C287.009 320.87 286.483 320.435 286.094 319.882C285.709 319.329 285.504 318.697 285.479 317.986H287.739C287.781 318.513 288.009 318.944 288.424 319.279C288.838 319.61 289.336 319.775 289.918 319.775C290.374 319.775 290.78 319.671 291.136 319.461C291.492 319.252 291.772 318.961 291.978 318.589C292.183 318.216 292.283 317.791 292.279 317.314C292.283 316.828 292.181 316.397 291.971 316.02C291.762 315.644 291.475 315.349 291.111 315.135C290.747 314.917 290.328 314.809 289.855 314.809C289.47 314.804 289.091 314.875 288.719 315.022C288.346 315.169 288.051 315.361 287.833 315.6L285.73 315.254L286.402 308.624H293.861V310.57H288.329L287.959 313.98H288.034C288.273 313.699 288.61 313.467 289.045 313.283C289.481 313.094 289.958 313 290.477 313C291.255 313 291.95 313.184 292.561 313.553C293.173 313.917 293.654 314.419 294.006 315.06C294.357 315.7 294.533 316.433 294.533 317.257C294.533 318.107 294.336 318.865 293.943 319.53C293.554 320.192 293.011 320.713 292.317 321.094C291.626 321.471 290.826 321.659 289.918 321.659Z" fill="#858585"/>
<path d="M329.028 308.624V321.483H327.471V310.256H327.396L324.256 312.341V310.759L327.471 308.624H329.028ZM336.996 321.659C336.469 321.651 335.941 321.55 335.414 321.358C334.887 321.165 334.405 320.841 333.97 320.384C333.535 319.924 333.185 319.302 332.921 318.519C332.658 317.732 332.526 316.745 332.526 315.556C332.526 314.417 332.632 313.408 332.846 312.529C333.059 311.646 333.369 310.903 333.775 310.3C334.181 309.693 334.671 309.233 335.245 308.919C335.822 308.605 336.473 308.448 337.197 308.448C337.917 308.448 338.558 308.592 339.119 308.881C339.684 309.166 340.144 309.563 340.5 310.074C340.856 310.585 341.086 311.173 341.191 311.839H339.659C339.516 311.261 339.24 310.782 338.83 310.401C338.42 310.02 337.875 309.829 337.197 309.829C336.201 309.829 335.416 310.262 334.843 311.129C334.273 311.996 333.987 313.212 333.982 314.777H334.083C334.317 314.421 334.596 314.118 334.918 313.867C335.245 313.611 335.605 313.415 335.998 313.276C336.391 313.138 336.808 313.069 337.248 313.069C337.984 313.069 338.658 313.253 339.269 313.622C339.881 313.986 340.37 314.49 340.739 315.135C341.107 315.775 341.291 316.51 341.291 317.339C341.291 318.134 341.113 318.863 340.758 319.524C340.402 320.181 339.901 320.705 339.257 321.094C338.616 321.479 337.863 321.667 336.996 321.659ZM336.996 320.278C337.524 320.278 337.997 320.146 338.415 319.882C338.838 319.618 339.171 319.265 339.414 318.821C339.661 318.377 339.784 317.883 339.784 317.339C339.784 316.807 339.665 316.324 339.426 315.889C339.192 315.449 338.868 315.099 338.453 314.84C338.043 314.58 337.574 314.451 337.047 314.451C336.649 314.451 336.278 314.53 335.935 314.689C335.592 314.844 335.291 315.058 335.031 315.33C334.776 315.602 334.575 315.914 334.428 316.265C334.282 316.613 334.208 316.979 334.208 317.364C334.208 317.875 334.328 318.352 334.566 318.796C334.809 319.239 335.14 319.597 335.558 319.869C335.981 320.142 336.461 320.278 336.996 320.278Z" fill="#858585"/>
<path d="M376.646 308.624V321.483H375.089V310.256H375.014L371.874 312.341V310.759L375.089 308.624H376.646ZM380.747 321.483L386.498 310.106V310.005H379.867V308.624H388.106V310.08L382.379 321.483H380.747Z" fill="#858585"/>
<path d="M93.34 361.669V374.529H91.7828V363.302H91.7074L88.5679 365.386V363.804L91.7828 361.669H93.34ZM101.157 374.704C100.295 374.704 99.5332 374.552 98.8718 374.246C98.2146 373.936 97.7018 373.511 97.3335 372.971C96.9651 372.427 96.783 371.808 96.7872 371.113C96.783 370.569 96.8897 370.066 97.1074 369.606C97.3251 369.141 97.6223 368.754 97.999 368.444C98.38 368.13 98.8049 367.931 99.2737 367.848V367.772C98.6583 367.613 98.1686 367.268 97.8044 366.736C97.4402 366.2 97.2602 365.591 97.2644 364.909C97.2602 364.256 97.4256 363.672 97.7604 363.157C98.0953 362.642 98.5558 362.236 99.1418 361.939C99.7321 361.642 100.404 361.493 101.157 361.493C101.903 361.493 102.568 361.642 103.154 361.939C103.74 362.236 104.201 362.642 104.536 363.157C104.875 363.672 105.046 364.256 105.05 364.909C105.046 365.591 104.86 366.2 104.492 366.736C104.127 367.268 103.644 367.613 103.041 367.772V367.848C103.506 367.931 103.924 368.13 104.297 368.444C104.669 368.754 104.967 369.141 105.189 369.606C105.41 370.066 105.523 370.569 105.528 371.113C105.523 371.808 105.335 372.427 104.963 372.971C104.594 373.511 104.081 373.936 103.424 374.246C102.771 374.552 102.016 374.704 101.157 374.704ZM101.157 373.323C101.739 373.323 102.242 373.229 102.664 373.04C103.087 372.852 103.414 372.586 103.644 372.243C103.874 371.9 103.991 371.498 103.996 371.037C103.991 370.552 103.866 370.123 103.619 369.75C103.372 369.378 103.035 369.085 102.608 368.871C102.185 368.658 101.702 368.551 101.157 368.551C100.609 368.551 100.119 368.658 99.6881 368.871C99.2611 369.085 98.9242 369.378 98.6772 369.75C98.4344 370.123 98.3151 370.552 98.3193 371.037C98.3151 371.498 98.426 371.9 98.6521 372.243C98.8823 372.586 99.2109 372.852 99.6379 373.04C100.065 373.229 100.571 373.323 101.157 373.323ZM101.157 367.22C101.618 367.22 102.026 367.128 102.382 366.943C102.742 366.759 103.024 366.502 103.229 366.171C103.435 365.84 103.539 365.453 103.543 365.01C103.539 364.574 103.437 364.195 103.236 363.873C103.035 363.546 102.756 363.295 102.401 363.12C102.045 362.94 101.63 362.85 101.157 362.85C100.676 362.85 100.255 362.94 99.8953 363.12C99.5353 363.295 99.2569 363.546 99.0602 363.873C98.8635 364.195 98.7672 364.574 98.7714 365.01C98.7672 365.453 98.8656 365.84 99.0665 366.171C99.2716 366.502 99.5542 366.759 99.9142 366.943C100.274 367.128 100.689 367.22 101.157 367.22Z" fill="#858585"/>
<path d="M140.422 361.669V374.529H138.865V363.302H138.79L135.65 365.386V363.804L138.865 361.669H140.422ZM148.215 361.493C148.742 361.497 149.269 361.598 149.797 361.795C150.324 361.991 150.806 362.318 151.241 362.774C151.676 363.226 152.026 363.844 152.29 364.626C152.553 365.409 152.685 366.391 152.685 367.571C152.685 368.714 152.576 369.729 152.359 370.617C152.145 371.5 151.836 372.245 151.429 372.852C151.028 373.459 150.538 373.919 149.96 374.233C149.387 374.547 148.738 374.704 148.014 374.704C147.294 374.704 146.651 374.562 146.086 374.277C145.525 373.989 145.065 373.589 144.705 373.078C144.349 372.563 144.121 371.967 144.02 371.289H145.552C145.69 371.879 145.965 372.366 146.375 372.752C146.789 373.133 147.336 373.323 148.014 373.323C149.006 373.323 149.789 372.89 150.362 372.023C150.94 371.157 151.229 369.932 151.229 368.35H151.128C150.894 368.702 150.615 369.005 150.293 369.26C149.971 369.516 149.613 369.713 149.219 369.851C148.826 369.989 148.407 370.058 147.963 370.058C147.227 370.058 146.551 369.876 145.935 369.512C145.324 369.143 144.834 368.639 144.466 367.998C144.102 367.354 143.92 366.617 143.92 365.788C143.92 365.001 144.096 364.281 144.447 363.628C144.803 362.971 145.301 362.448 145.942 362.058C146.586 361.669 147.344 361.481 148.215 361.493ZM148.215 362.875C147.687 362.875 147.212 363.007 146.789 363.27C146.371 363.53 146.038 363.881 145.791 364.325C145.548 364.765 145.427 365.252 145.427 365.788C145.427 366.324 145.544 366.812 145.778 367.251C146.017 367.686 146.341 368.034 146.752 368.293C147.166 368.549 147.637 368.676 148.164 368.676C148.562 368.676 148.932 368.599 149.276 368.444C149.619 368.285 149.918 368.07 150.174 367.797C150.433 367.521 150.636 367.209 150.783 366.862C150.929 366.51 151.002 366.144 151.002 365.763C151.002 365.261 150.881 364.79 150.638 364.35C150.4 363.911 150.069 363.555 149.646 363.283C149.228 363.011 148.75 362.875 148.215 362.875Z" fill="#858585"/>
<circle cx="158.932" cy="353.794" r="2.94697" fill="#62D0A2"/>
<path d="M181.801 374.529V373.398L186.046 368.752C186.544 368.208 186.954 367.735 187.277 367.333C187.599 366.927 187.838 366.546 187.992 366.19C188.152 365.83 188.231 365.453 188.231 365.06C188.231 364.608 188.122 364.216 187.905 363.886C187.691 363.555 187.398 363.3 187.026 363.12C186.653 362.94 186.234 362.85 185.77 362.85C185.276 362.85 184.845 362.952 184.476 363.157C184.112 363.358 183.829 363.641 183.629 364.005C183.432 364.369 183.333 364.796 183.333 365.286H181.852C181.852 364.532 182.025 363.871 182.373 363.302C182.72 362.732 183.193 362.289 183.792 361.97C184.395 361.652 185.071 361.493 185.82 361.493C186.573 361.493 187.241 361.652 187.823 361.97C188.405 362.289 188.861 362.718 189.192 363.258C189.522 363.798 189.688 364.398 189.688 365.06C189.688 365.533 189.602 365.995 189.43 366.447C189.263 366.895 188.97 367.396 188.551 367.948C188.137 368.496 187.561 369.166 186.825 369.957L183.936 373.047V373.147H189.914V374.529H181.801ZM196.702 374.704C195.755 374.704 194.95 374.447 194.284 373.932C193.619 373.413 193.11 372.662 192.758 371.678C192.407 370.69 192.231 369.497 192.231 368.099C192.231 366.709 192.407 365.522 192.758 364.539C193.114 363.551 193.625 362.797 194.29 362.278C194.96 361.755 195.764 361.493 196.702 361.493C197.639 361.493 198.441 361.755 199.106 362.278C199.776 362.797 200.287 363.551 200.638 364.539C200.994 365.522 201.172 366.709 201.172 368.099C201.172 369.497 200.996 370.69 200.645 371.678C200.293 372.662 199.785 373.413 199.119 373.932C198.453 374.447 197.648 374.704 196.702 374.704ZM196.702 373.323C197.639 373.323 198.368 372.871 198.887 371.967C199.406 371.063 199.665 369.773 199.665 368.099C199.665 366.985 199.546 366.037 199.307 365.254C199.073 364.472 198.734 363.875 198.29 363.465C197.851 363.055 197.321 362.85 196.702 362.85C195.772 362.85 195.046 363.308 194.523 364.225C193.999 365.137 193.738 366.429 193.738 368.099C193.738 369.212 193.855 370.158 194.089 370.937C194.324 371.716 194.661 372.308 195.1 372.714C195.544 373.12 196.078 373.323 196.702 373.323Z" fill="#858585"/>
<path d="M230.369 374.529V373.398L234.613 368.752C235.111 368.208 235.522 367.735 235.844 367.333C236.166 366.927 236.405 366.546 236.56 366.19C236.719 365.83 236.798 365.453 236.798 365.06C236.798 364.608 236.69 364.216 236.472 363.886C236.258 363.555 235.965 363.3 235.593 363.12C235.22 362.94 234.802 362.85 234.337 362.85C233.843 362.85 233.412 362.952 233.044 363.157C232.679 363.358 232.397 363.641 232.196 364.005C231.999 364.369 231.901 364.796 231.901 365.286H230.419C230.419 364.532 230.593 363.871 230.94 363.302C231.287 362.732 231.76 362.289 232.359 361.97C232.962 361.652 233.638 361.493 234.387 361.493C235.141 361.493 235.808 361.652 236.39 361.97C236.972 362.289 237.428 362.718 237.759 363.258C238.09 363.798 238.255 364.398 238.255 365.06C238.255 365.533 238.169 365.995 237.998 366.447C237.83 366.895 237.537 367.396 237.119 367.948C236.704 368.496 236.129 369.166 235.392 369.957L232.504 373.047V373.147H238.481V374.529H230.369ZM245.595 361.669V374.529H244.038V363.302H243.963L240.823 365.386V363.804L244.038 361.669H245.595Z" fill="#858585"/>
<rect x="262.076" y="344.953" width="47.1515" height="47.1515" rx="11.7879" fill="#5865F2"/>
<path d="M276.277 374.529V373.398L280.521 368.752C281.02 368.208 281.43 367.735 281.752 367.333C282.074 366.927 282.313 366.546 282.468 366.19C282.627 365.83 282.706 365.453 282.706 365.06C282.706 364.608 282.598 364.216 282.38 363.886C282.166 363.555 281.873 363.3 281.501 363.12C281.128 362.94 280.71 362.85 280.245 362.85C279.751 362.85 279.32 362.952 278.952 363.157C278.587 363.358 278.305 363.641 278.104 364.005C277.907 364.369 277.809 364.796 277.809 365.286H276.327C276.327 364.532 276.501 363.871 276.848 363.302C277.196 362.732 277.669 362.289 278.267 361.97C278.87 361.652 279.546 361.493 280.295 361.493C281.049 361.493 281.716 361.652 282.298 361.97C282.88 362.289 283.336 362.718 283.667 363.258C283.998 363.798 284.163 364.398 284.163 365.06C284.163 365.533 284.077 365.995 283.906 366.447C283.738 366.895 283.445 367.396 283.027 367.948C282.612 368.496 282.037 369.166 281.3 369.957L278.412 373.047V373.147H284.389V374.529H276.277ZM286.983 374.529V373.398L291.227 368.752C291.725 368.208 292.136 367.735 292.458 367.333C292.78 366.927 293.019 366.546 293.174 366.19C293.333 365.83 293.412 365.453 293.412 365.06C293.412 364.608 293.303 364.216 293.086 363.886C292.872 363.555 292.579 363.3 292.207 363.12C291.834 362.94 291.416 362.85 290.951 362.85C290.457 362.85 290.026 362.952 289.657 363.157C289.293 363.358 289.011 363.641 288.81 364.005C288.613 364.369 288.515 364.796 288.515 365.286H287.033C287.033 364.532 287.206 363.871 287.554 363.302C287.901 362.732 288.374 362.289 288.973 361.97C289.576 361.652 290.252 361.493 291.001 361.493C291.755 361.493 292.422 361.652 293.004 361.97C293.586 362.289 294.042 362.718 294.373 363.258C294.704 363.798 294.869 364.398 294.869 365.06C294.869 365.533 294.783 365.995 294.612 366.447C294.444 366.895 294.151 367.396 293.733 367.948C293.318 368.496 292.743 369.166 292.006 369.957L289.117 373.047V373.147H295.095V374.529H286.983Z" fill="white"/>
<path d="M323.152 374.529V373.398L327.396 368.752C327.895 368.208 328.305 367.735 328.627 367.333C328.949 366.927 329.188 366.546 329.343 366.19C329.502 365.83 329.582 365.453 329.582 365.06C329.582 364.608 329.473 364.216 329.255 363.886C329.042 363.555 328.749 363.3 328.376 363.12C328.003 362.94 327.585 362.85 327.12 362.85C326.626 362.85 326.195 362.952 325.827 363.157C325.463 363.358 325.18 363.641 324.979 364.005C324.782 364.369 324.684 364.796 324.684 365.286H323.202C323.202 364.532 323.376 363.871 323.723 363.302C324.071 362.732 324.544 362.289 325.142 361.97C325.745 361.652 326.421 361.493 327.17 361.493C327.924 361.493 328.592 361.652 329.173 361.97C329.755 362.289 330.212 362.718 330.542 363.258C330.873 363.798 331.038 364.398 331.038 365.06C331.038 365.533 330.953 365.995 330.781 366.447C330.613 366.895 330.32 367.396 329.902 367.948C329.487 368.496 328.912 369.166 328.175 369.957L325.287 373.047V373.147H331.264V374.529H323.152ZM338.203 374.704C337.374 374.704 336.635 374.562 335.986 374.277C335.342 373.993 334.829 373.597 334.448 373.091C334.071 372.58 333.866 371.988 333.832 371.314H335.415C335.448 371.728 335.591 372.086 335.842 372.387C336.093 372.685 336.422 372.915 336.828 373.078C337.234 373.241 337.684 373.323 338.178 373.323C338.73 373.323 339.22 373.227 339.647 373.034C340.074 372.842 340.409 372.574 340.652 372.23C340.894 371.887 341.016 371.49 341.016 371.037C341.016 370.564 340.899 370.148 340.664 369.788C340.43 369.424 340.086 369.139 339.634 368.934C339.182 368.729 338.63 368.626 337.977 368.626H336.947V367.245H337.977C338.487 367.245 338.935 367.153 339.32 366.969C339.71 366.784 340.013 366.525 340.231 366.19C340.453 365.855 340.564 365.462 340.564 365.01C340.564 364.574 340.467 364.195 340.275 363.873C340.082 363.551 339.81 363.3 339.459 363.12C339.111 362.94 338.701 362.85 338.228 362.85C337.784 362.85 337.366 362.931 336.972 363.094C336.583 363.253 336.265 363.486 336.018 363.791C335.771 364.093 335.637 364.457 335.616 364.884H334.109C334.134 364.21 334.337 363.62 334.718 363.113C335.099 362.603 335.597 362.205 336.212 361.92C336.832 361.636 337.512 361.493 338.253 361.493C339.048 361.493 339.731 361.654 340.3 361.977C340.869 362.295 341.307 362.716 341.612 363.239C341.918 363.762 342.071 364.327 342.071 364.934C342.071 365.658 341.88 366.276 341.499 366.786C341.122 367.297 340.61 367.651 339.961 367.848V367.948C340.773 368.082 341.407 368.427 341.863 368.984C342.32 369.537 342.548 370.221 342.548 371.037C342.548 371.736 342.357 372.364 341.976 372.921C341.6 373.474 341.085 373.909 340.432 374.227C339.779 374.545 339.036 374.704 338.203 374.704Z" fill="#858585"/>
<path d="M370.399 374.529V373.398L374.643 368.752C375.141 368.208 375.552 367.735 375.874 367.333C376.196 366.927 376.435 366.546 376.59 366.19C376.749 365.83 376.828 365.453 376.828 365.06C376.828 364.608 376.72 364.216 376.502 363.886C376.288 363.555 375.995 363.3 375.623 363.12C375.25 362.94 374.832 362.85 374.367 362.85C373.873 362.85 373.442 362.952 373.074 363.157C372.709 363.358 372.427 363.641 372.226 364.005C372.029 364.369 371.931 364.796 371.931 365.286H370.449C370.449 364.532 370.623 363.871 370.97 363.302C371.317 362.732 371.791 362.289 372.389 361.97C372.992 361.652 373.668 361.493 374.417 361.493C375.171 361.493 375.838 361.652 376.42 361.97C377.002 362.289 377.458 362.718 377.789 363.258C378.12 363.798 378.285 364.398 378.285 365.06C378.285 365.533 378.199 365.995 378.028 366.447C377.86 366.895 377.567 367.396 377.149 367.948C376.734 368.496 376.159 369.166 375.422 369.957L372.534 373.047V373.147H378.511V374.529H370.399ZM380.527 371.891V370.61L386.178 361.669H387.107V363.653H386.479L382.21 370.41V370.51H389.82V371.891H380.527ZM386.58 374.529V371.502V370.906V361.669H388.062V374.529H386.58Z" fill="#858585"/>
<path d="M87.6449 427.574V426.444L91.8895 421.797C92.3877 421.253 92.7979 420.78 93.1202 420.378C93.4425 419.972 93.6811 419.591 93.836 419.236C93.9951 418.876 94.0746 418.499 94.0746 418.105C94.0746 417.653 93.9658 417.262 93.7481 416.931C93.5346 416.601 93.2416 416.345 92.8691 416.165C92.4965 415.985 92.0779 415.895 91.6132 415.895C91.1193 415.895 90.6881 415.998 90.3198 416.203C89.9556 416.404 89.673 416.686 89.4721 417.051C89.2753 417.415 89.177 417.842 89.177 418.331H87.6951C87.6951 417.578 87.8688 416.917 88.2163 416.347C88.5637 415.778 89.0367 415.334 89.6353 415.016C90.2381 414.698 90.9142 414.539 91.6635 414.539C92.417 414.539 93.0846 414.698 93.6665 415.016C94.2484 415.334 94.7046 415.763 95.0353 416.303C95.366 416.843 95.5314 417.444 95.5314 418.105C95.5314 418.578 95.4456 419.041 95.2739 419.493C95.1065 419.941 94.8135 420.441 94.3949 420.994C93.9804 421.542 93.4049 422.212 92.6681 423.003L89.7798 426.092V426.193H95.7574V427.574H87.6449ZM102.369 427.75C101.633 427.75 100.969 427.604 100.379 427.31C99.7886 427.017 99.3155 426.616 98.9597 426.105C98.6039 425.594 98.4093 425.012 98.3758 424.359H99.8828C99.9414 424.941 100.205 425.423 100.674 425.804C101.147 426.18 101.712 426.369 102.369 426.369C102.897 426.369 103.366 426.245 103.776 425.998C104.19 425.751 104.515 425.412 104.749 424.981C104.988 424.546 105.107 424.054 105.107 423.505C105.107 422.944 104.983 422.444 104.736 422.005C104.494 421.561 104.159 421.211 103.732 420.956C103.305 420.701 102.817 420.571 102.269 420.567C101.875 420.563 101.471 420.623 101.057 420.749C100.643 420.87 100.301 421.027 100.033 421.22L98.5767 421.044L99.3553 414.715H106.036V416.096H100.661L100.209 419.889H100.285C100.548 419.679 100.879 419.506 101.277 419.367C101.674 419.229 102.089 419.16 102.52 419.16C103.307 419.16 104.008 419.349 104.623 419.725C105.243 420.098 105.729 420.609 106.08 421.257C106.436 421.906 106.614 422.647 106.614 423.48C106.614 424.301 106.43 425.033 106.061 425.678C105.697 426.318 105.195 426.825 104.554 427.197C103.914 427.566 103.186 427.75 102.369 427.75Z" fill="#F36A6A"/>
<path d="M134.658 427.574V426.444L138.903 421.797C139.401 421.253 139.811 420.78 140.133 420.378C140.456 419.972 140.694 419.591 140.849 419.236C141.008 418.876 141.088 418.499 141.088 418.105C141.088 417.653 140.979 417.262 140.761 416.931C140.548 416.601 140.255 416.345 139.882 416.165C139.51 415.985 139.091 415.895 138.626 415.895C138.133 415.895 137.701 415.998 137.333 416.203C136.969 416.404 136.686 416.686 136.485 417.051C136.289 417.415 136.19 417.842 136.19 418.331H134.708C134.708 417.578 134.882 416.917 135.23 416.347C135.577 415.778 136.05 415.334 136.649 415.016C137.251 414.698 137.927 414.539 138.677 414.539C139.43 414.539 140.098 414.698 140.68 415.016C141.262 415.334 141.718 415.763 142.049 416.303C142.379 416.843 142.545 417.444 142.545 418.105C142.545 418.578 142.459 419.041 142.287 419.493C142.12 419.941 141.827 420.441 141.408 420.994C140.994 421.542 140.418 422.212 139.681 423.003L136.793 426.092V426.193H142.771V427.574H134.658ZM149.634 427.75C149.106 427.742 148.579 427.641 148.051 427.449C147.524 427.256 147.042 426.932 146.607 426.475C146.172 426.015 145.822 425.393 145.559 424.611C145.295 423.824 145.163 422.836 145.163 421.647C145.163 420.508 145.27 419.499 145.483 418.62C145.697 417.737 146.006 416.994 146.412 416.391C146.819 415.784 147.308 415.324 147.882 415.01C148.459 414.696 149.11 414.539 149.835 414.539C150.555 414.539 151.195 414.683 151.756 414.972C152.321 415.257 152.782 415.654 153.137 416.165C153.493 416.676 153.723 417.264 153.828 417.93H152.296C152.154 417.352 151.877 416.873 151.467 416.492C151.057 416.111 150.513 415.92 149.835 415.92C148.838 415.92 148.053 416.354 147.48 417.22C146.911 418.087 146.624 419.303 146.62 420.868H146.72C146.955 420.512 147.233 420.209 147.555 419.958C147.882 419.702 148.242 419.506 148.635 419.367C149.029 419.229 149.445 419.16 149.885 419.16C150.622 419.16 151.296 419.344 151.907 419.713C152.518 420.077 153.008 420.581 153.376 421.226C153.744 421.867 153.929 422.601 153.929 423.43C153.929 424.225 153.751 424.954 153.395 425.615C153.039 426.272 152.539 426.796 151.894 427.185C151.254 427.57 150.5 427.758 149.634 427.75ZM149.634 426.369C150.161 426.369 150.634 426.237 151.053 425.973C151.476 425.709 151.808 425.356 152.051 424.912C152.298 424.468 152.422 423.974 152.422 423.43C152.422 422.898 152.302 422.415 152.064 421.98C151.829 421.54 151.505 421.191 151.09 420.931C150.68 420.671 150.211 420.542 149.684 420.542C149.286 420.542 148.916 420.621 148.572 420.78C148.229 420.935 147.928 421.149 147.668 421.421C147.413 421.693 147.212 422.005 147.066 422.356C146.919 422.704 146.846 423.07 146.846 423.455C146.846 423.966 146.965 424.443 147.204 424.887C147.446 425.331 147.777 425.688 148.196 425.961C148.619 426.233 149.098 426.369 149.634 426.369Z" fill="#858585"/>
<path d="M182.276 427.574V426.444L186.521 421.797C187.019 421.253 187.429 420.78 187.752 420.378C188.074 419.972 188.312 419.591 188.467 419.236C188.626 418.876 188.706 418.499 188.706 418.105C188.706 417.653 188.597 417.262 188.379 416.931C188.166 416.601 187.873 416.345 187.5 416.165C187.128 415.985 186.709 415.895 186.245 415.895C185.751 415.895 185.319 415.998 184.951 416.203C184.587 416.404 184.304 416.686 184.103 417.051C183.907 417.415 183.808 417.842 183.808 418.331H182.326C182.326 417.578 182.5 416.917 182.848 416.347C183.195 415.778 183.668 415.334 184.267 415.016C184.869 414.698 185.545 414.539 186.295 414.539C187.048 414.539 187.716 414.698 188.298 415.016C188.88 415.334 189.336 415.763 189.667 416.303C189.997 416.843 190.163 417.444 190.163 418.105C190.163 418.578 190.077 419.041 189.905 419.493C189.738 419.941 189.445 420.441 189.026 420.994C188.612 421.542 188.036 422.212 187.299 423.003L184.411 426.092V426.193H190.389V427.574H182.276ZM193.384 427.574L199.135 416.197V416.096H192.505V414.715H200.743V416.171L195.016 427.574H193.384Z" fill="#858585"/>
<path d="M229.03 427.574V426.444L233.275 421.797C233.773 421.253 234.183 420.78 234.506 420.378C234.828 419.972 235.067 419.591 235.222 419.236C235.381 418.876 235.46 418.499 235.46 418.105C235.46 417.653 235.351 417.262 235.134 416.931C234.92 416.601 234.627 416.345 234.255 416.165C233.882 415.985 233.463 415.895 232.999 415.895C232.505 415.895 232.074 415.998 231.705 416.203C231.341 416.404 231.059 416.686 230.858 417.051C230.661 417.415 230.562 417.842 230.562 418.331H229.081C229.081 417.578 229.254 416.917 229.602 416.347C229.949 415.778 230.422 415.334 231.021 415.016C231.624 414.698 232.3 414.539 233.049 414.539C233.802 414.539 234.47 414.698 235.052 415.016C235.634 415.334 236.09 415.763 236.421 416.303C236.752 416.843 236.917 417.444 236.917 418.105C236.917 418.578 236.831 419.041 236.659 419.493C236.492 419.941 236.199 420.441 235.78 420.994C235.366 421.542 234.79 422.212 234.054 423.003L231.165 426.092V426.193H237.143V427.574H229.03ZM243.855 427.75C242.993 427.75 242.231 427.597 241.57 427.292C240.912 426.982 240.4 426.557 240.031 426.017C239.663 425.473 239.481 424.853 239.485 424.158C239.481 423.614 239.588 423.112 239.805 422.651C240.023 422.187 240.32 421.8 240.697 421.49C241.078 421.176 241.503 420.977 241.972 420.893V420.818C241.356 420.659 240.866 420.314 240.502 419.782C240.138 419.246 239.958 418.637 239.962 417.955C239.958 417.302 240.123 416.718 240.458 416.203C240.793 415.688 241.254 415.282 241.84 414.985C242.43 414.688 243.102 414.539 243.855 414.539C244.6 414.539 245.266 414.688 245.852 414.985C246.438 415.282 246.898 415.688 247.233 416.203C247.572 416.718 247.744 417.302 247.748 417.955C247.744 418.637 247.558 419.246 247.189 419.782C246.825 420.314 246.342 420.659 245.739 420.818V420.893C246.204 420.977 246.622 421.176 246.995 421.49C247.367 421.8 247.665 422.187 247.886 422.651C248.108 423.112 248.221 423.614 248.225 424.158C248.221 424.853 248.033 425.473 247.66 426.017C247.292 426.557 246.779 426.982 246.122 427.292C245.469 427.597 244.713 427.75 243.855 427.75ZM243.855 426.369C244.437 426.369 244.939 426.274 245.362 426.086C245.785 425.898 246.112 425.632 246.342 425.289C246.572 424.945 246.689 424.544 246.693 424.083C246.689 423.597 246.564 423.168 246.317 422.796C246.07 422.423 245.733 422.13 245.306 421.917C244.883 421.703 244.399 421.597 243.855 421.597C243.307 421.597 242.817 421.703 242.386 421.917C241.959 422.13 241.622 422.423 241.375 422.796C241.132 423.168 241.013 423.597 241.017 424.083C241.013 424.544 241.124 424.945 241.35 425.289C241.58 425.632 241.909 425.898 242.336 426.086C242.763 426.274 243.269 426.369 243.855 426.369ZM243.855 420.265C244.316 420.265 244.724 420.173 245.08 419.989C245.44 419.805 245.722 419.547 245.927 419.217C246.132 418.886 246.237 418.499 246.241 418.055C246.237 417.62 246.135 417.241 245.934 416.919C245.733 416.592 245.454 416.341 245.099 416.165C244.743 415.985 244.328 415.895 243.855 415.895C243.374 415.895 242.953 415.985 242.593 416.165C242.233 416.341 241.955 416.592 241.758 416.919C241.561 417.241 241.465 417.62 241.469 418.055C241.465 418.499 241.563 418.886 241.764 419.217C241.969 419.547 242.252 419.805 242.612 419.989C242.972 420.173 243.386 420.265 243.855 420.265Z" fill="#858585"/>
<path d="M276.113 427.574V426.444L280.357 421.797C280.855 421.253 281.266 420.78 281.588 420.378C281.91 419.972 282.149 419.591 282.304 419.236C282.463 418.876 282.542 418.499 282.542 418.105C282.542 417.653 282.434 417.262 282.216 416.931C282.002 416.601 281.709 416.345 281.337 416.165C280.964 415.985 280.546 415.895 280.081 415.895C279.587 415.895 279.156 415.998 278.788 416.203C278.423 416.404 278.141 416.686 277.94 417.051C277.743 417.415 277.645 417.842 277.645 418.331H276.163C276.163 417.578 276.337 416.917 276.684 416.347C277.032 415.778 277.505 415.334 278.103 415.016C278.706 414.698 279.382 414.539 280.131 414.539C280.885 414.539 281.552 414.698 282.134 415.016C282.716 415.334 283.172 415.763 283.503 416.303C283.834 416.843 283.999 417.444 283.999 418.105C283.999 418.578 283.913 419.041 283.742 419.493C283.574 419.941 283.281 420.441 282.863 420.994C282.448 421.542 281.873 422.212 281.136 423.003L278.248 426.092V426.193H284.225V427.574H276.113ZM290.912 414.539C291.44 414.543 291.967 414.644 292.495 414.84C293.022 415.037 293.504 415.364 293.939 415.82C294.374 416.272 294.724 416.889 294.988 417.672C295.251 418.455 295.383 419.437 295.383 420.617C295.383 421.76 295.274 422.775 295.057 423.662C294.843 424.546 294.533 425.291 294.127 425.898C293.725 426.505 293.236 426.965 292.658 427.279C292.085 427.593 291.436 427.75 290.711 427.75C289.992 427.75 289.349 427.608 288.784 427.323C288.223 427.034 287.762 426.634 287.402 426.124C287.047 425.609 286.818 425.012 286.718 424.334H288.25C288.388 424.924 288.662 425.412 289.073 425.797C289.487 426.178 290.033 426.369 290.711 426.369C291.704 426.369 292.486 425.935 293.06 425.069C293.638 424.202 293.926 422.978 293.926 421.396H293.826C293.591 421.747 293.313 422.051 292.991 422.306C292.668 422.561 292.311 422.758 291.917 422.896C291.524 423.034 291.105 423.104 290.661 423.104C289.925 423.104 289.248 422.921 288.633 422.557C288.022 422.189 287.532 421.684 287.164 421.044C286.8 420.399 286.618 419.663 286.618 418.834C286.618 418.047 286.793 417.327 287.145 416.674C287.501 416.017 287.999 415.493 288.639 415.104C289.284 414.715 290.042 414.526 290.912 414.539ZM290.912 415.92C290.385 415.92 289.91 416.052 289.487 416.316C289.068 416.575 288.736 416.927 288.489 417.371C288.246 417.81 288.125 418.298 288.125 418.834C288.125 419.37 288.242 419.857 288.476 420.297C288.715 420.732 289.039 421.08 289.449 421.339C289.864 421.594 290.335 421.722 290.862 421.722C291.26 421.722 291.63 421.645 291.974 421.49C292.317 421.331 292.616 421.115 292.871 420.843C293.131 420.567 293.334 420.255 293.481 419.907C293.627 419.556 293.7 419.19 293.7 418.809C293.7 418.306 293.579 417.835 293.336 417.396C293.098 416.956 292.767 416.601 292.344 416.328C291.925 416.056 291.448 415.92 290.912 415.92Z" fill="#858585"/>
<path d="M327.324 427.75C326.495 427.75 325.757 427.608 325.108 427.323C324.463 427.038 323.95 426.643 323.569 426.136C323.193 425.626 322.988 425.033 322.954 424.359H324.536C324.57 424.774 324.712 425.132 324.963 425.433C325.214 425.73 325.543 425.961 325.949 426.124C326.355 426.287 326.805 426.369 327.299 426.369C327.852 426.369 328.341 426.272 328.768 426.08C329.195 425.887 329.53 425.619 329.773 425.276C330.016 424.933 330.137 424.535 330.137 424.083C330.137 423.61 330.02 423.194 329.786 422.834C329.551 422.469 329.208 422.185 328.756 421.98C328.304 421.774 327.751 421.672 327.098 421.672H326.068V420.291H327.098C327.609 420.291 328.057 420.198 328.442 420.014C328.831 419.83 329.135 419.571 329.352 419.236C329.574 418.901 329.685 418.507 329.685 418.055C329.685 417.62 329.589 417.241 329.396 416.919C329.204 416.596 328.932 416.345 328.58 416.165C328.233 415.985 327.822 415.895 327.349 415.895C326.906 415.895 326.487 415.977 326.094 416.14C325.704 416.299 325.386 416.531 325.139 416.837C324.892 417.138 324.758 417.503 324.737 417.93H323.23C323.255 417.256 323.458 416.665 323.839 416.159C324.22 415.648 324.718 415.251 325.334 414.966C325.953 414.681 326.634 414.539 327.374 414.539C328.17 414.539 328.852 414.7 329.421 415.022C329.991 415.341 330.428 415.761 330.734 416.284C331.039 416.808 331.192 417.373 331.192 417.98C331.192 418.704 331.002 419.321 330.621 419.832C330.244 420.343 329.731 420.697 329.082 420.893V420.994C329.894 421.128 330.529 421.473 330.985 422.03C331.441 422.582 331.669 423.267 331.669 424.083C331.669 424.782 331.479 425.41 331.098 425.967C330.721 426.519 330.206 426.955 329.553 427.273C328.9 427.591 328.157 427.75 327.324 427.75ZM338.432 427.75C337.486 427.75 336.68 427.493 336.014 426.978C335.349 426.459 334.84 425.707 334.489 424.724C334.137 423.736 333.961 422.543 333.961 421.144C333.961 419.755 334.137 418.568 334.489 417.584C334.844 416.596 335.355 415.843 336.021 415.324C336.691 414.801 337.494 414.539 338.432 414.539C339.37 414.539 340.171 414.801 340.837 415.324C341.507 415.843 342.017 416.596 342.369 417.584C342.725 418.568 342.903 419.755 342.903 421.144C342.903 422.543 342.727 423.736 342.375 424.724C342.024 425.707 341.515 426.459 340.849 426.978C340.184 427.493 339.378 427.75 338.432 427.75ZM338.432 426.369C339.37 426.369 340.098 425.917 340.617 425.012C341.136 424.108 341.396 422.819 341.396 421.144C341.396 420.031 341.276 419.083 341.038 418.3C340.803 417.517 340.464 416.921 340.021 416.511C339.581 416.1 339.051 415.895 338.432 415.895C337.503 415.895 336.776 416.354 336.253 417.27C335.73 418.183 335.468 419.474 335.468 421.144C335.468 422.258 335.585 423.204 335.82 423.983C336.054 424.761 336.391 425.354 336.831 425.76C337.274 426.166 337.808 426.369 338.432 426.369Z" fill="#858585"/>
<circle cx="347.538" cy="406.84" r="2.94697" fill="#62D0A2"/>
<path d="M174.546 504.407H172.914L177.635 491.548H179.243L183.965 504.407H182.332L178.489 493.582H178.389L174.546 504.407ZM175.149 499.384H181.729V500.766H175.149V499.384ZM189.685 504.608C188.781 504.608 188.002 504.395 187.349 503.968C186.696 503.541 186.194 502.953 185.842 502.204C185.49 501.454 185.315 500.598 185.315 499.635C185.315 498.656 185.495 497.791 185.855 497.042C186.219 496.289 186.725 495.701 187.374 495.278C188.027 494.851 188.789 494.637 189.66 494.637C190.338 494.637 190.949 494.763 191.493 495.014C192.037 495.265 192.483 495.617 192.831 496.069C193.178 496.521 193.394 497.048 193.477 497.651H191.996C191.883 497.212 191.631 496.822 191.242 496.483C190.857 496.14 190.338 495.968 189.685 495.968C189.107 495.968 188.601 496.119 188.165 496.421C187.734 496.718 187.397 497.138 187.154 497.683C186.916 498.223 186.796 498.857 186.796 499.585C186.796 500.33 186.914 500.979 187.148 501.532C187.387 502.084 187.722 502.513 188.153 502.819C188.588 503.124 189.099 503.277 189.685 503.277C190.07 503.277 190.42 503.21 190.733 503.076C191.047 502.942 191.313 502.75 191.531 502.499C191.749 502.247 191.903 501.946 191.996 501.594H193.477C193.394 502.164 193.186 502.677 192.856 503.133C192.529 503.585 192.096 503.945 191.556 504.213C191.02 504.477 190.396 504.608 189.685 504.608ZM199.838 494.763V496.019H194.84V494.763H199.838ZM196.297 492.452H197.779V501.645C197.779 502.063 197.839 502.377 197.961 502.587C198.086 502.792 198.245 502.93 198.438 503.001C198.635 503.068 198.842 503.101 199.059 503.101C199.223 503.101 199.357 503.093 199.461 503.076C199.566 503.055 199.65 503.039 199.713 503.026L200.014 504.357C199.913 504.395 199.773 504.433 199.593 504.47C199.413 504.512 199.185 504.533 198.909 504.533C198.49 504.533 198.08 504.443 197.678 504.263C197.28 504.083 196.95 503.809 196.686 503.44C196.426 503.072 196.297 502.607 196.297 502.047V492.452ZM202.067 504.407V494.763H203.549V504.407H202.067ZM202.821 493.155C202.532 493.155 202.283 493.057 202.073 492.86C201.868 492.664 201.766 492.427 201.766 492.151C201.766 491.874 201.868 491.638 202.073 491.441C202.283 491.244 202.532 491.146 202.821 491.146C203.109 491.146 203.356 491.244 203.562 491.441C203.771 491.638 203.876 491.874 203.876 492.151C203.876 492.427 203.771 492.664 203.562 492.86C203.356 493.057 203.109 493.155 202.821 493.155ZM210.181 504.608C209.311 504.608 208.547 504.401 207.889 503.987C207.236 503.572 206.726 502.993 206.357 502.247C205.993 501.502 205.811 500.632 205.811 499.635C205.811 498.631 205.993 497.754 206.357 497.004C206.726 496.255 207.236 495.673 207.889 495.259C208.547 494.844 209.311 494.637 210.181 494.637C211.052 494.637 211.814 494.844 212.467 495.259C213.124 495.673 213.635 496.255 213.999 497.004C214.367 497.754 214.551 498.631 214.551 499.635C214.551 500.632 214.367 501.502 213.999 502.247C213.635 502.993 213.124 503.572 212.467 503.987C211.814 504.401 211.052 504.608 210.181 504.608ZM210.181 503.277C210.843 503.277 211.387 503.108 211.814 502.769C212.241 502.43 212.557 501.984 212.762 501.431C212.967 500.879 213.07 500.28 213.07 499.635C213.07 498.991 212.967 498.39 212.762 497.833C212.557 497.277 212.241 496.827 211.814 496.483C211.387 496.14 210.843 495.968 210.181 495.968C209.52 495.968 208.976 496.14 208.549 496.483C208.122 496.827 207.806 497.277 207.601 497.833C207.395 498.39 207.293 498.991 207.293 499.635C207.293 500.28 207.395 500.879 207.601 501.431C207.806 501.984 208.122 502.43 208.549 502.769C208.976 503.108 209.52 503.277 210.181 503.277ZM218.295 498.606V504.407H216.814V494.763H218.245V496.27H218.371C218.597 495.78 218.94 495.387 219.4 495.089C219.861 494.788 220.455 494.637 221.184 494.637C221.837 494.637 222.408 494.771 222.898 495.039C223.388 495.303 223.769 495.705 224.041 496.245C224.313 496.781 224.449 497.459 224.449 498.279V504.407H222.967V498.38C222.967 497.622 222.77 497.032 222.377 496.609C221.983 496.182 221.443 495.968 220.757 495.968C220.284 495.968 219.861 496.071 219.488 496.276C219.12 496.481 218.829 496.781 218.616 497.174C218.402 497.567 218.295 498.045 218.295 498.606ZM236.625 491.548V504.407H235.068V493.181H234.993L231.853 495.265V493.683L235.068 491.548H236.625Z" fill="#5865F2"/>
<rect x="286.378" y="474.62" width="117.152" height="47.5758" rx="4" fill="#5865F2"/>
<path d="M312.53 504.407H310.897L315.619 491.548H317.227L321.948 504.407H320.316L316.473 493.582H316.373L312.53 504.407ZM313.133 499.384H319.713V500.766H313.133V499.384ZM327.669 504.608C326.764 504.608 325.986 504.395 325.333 503.968C324.68 503.541 324.177 502.953 323.826 502.204C323.474 501.454 323.298 500.598 323.298 499.635C323.298 498.656 323.478 497.791 323.838 497.042C324.203 496.289 324.709 495.701 325.358 495.278C326.011 494.851 326.773 494.637 327.644 494.637C328.322 494.637 328.933 494.763 329.477 495.014C330.021 495.265 330.467 495.617 330.814 496.069C331.162 496.521 331.377 497.048 331.461 497.651H329.979C329.866 497.212 329.615 496.822 329.226 496.483C328.841 496.14 328.322 495.968 327.669 495.968C327.091 495.968 326.584 496.119 326.149 496.421C325.718 496.718 325.381 497.138 325.138 497.683C324.9 498.223 324.78 498.857 324.78 499.585C324.78 500.33 324.897 500.979 325.132 501.532C325.371 502.084 325.705 502.513 326.137 502.819C326.572 503.124 327.083 503.277 327.669 503.277C328.054 503.277 328.403 503.21 328.717 503.076C329.031 502.942 329.297 502.75 329.515 502.499C329.732 502.247 329.887 501.946 329.979 501.594H331.461C331.377 502.164 331.17 502.677 330.84 503.133C330.513 503.585 330.08 503.945 329.54 504.213C329.004 504.477 328.38 504.608 327.669 504.608ZM337.822 494.763V496.019H332.824V494.763H337.822ZM334.28 492.452H335.762V501.645C335.762 502.063 335.823 502.377 335.944 502.587C336.07 502.792 336.229 502.93 336.422 503.001C336.618 503.068 336.826 503.101 337.043 503.101C337.207 503.101 337.34 503.093 337.445 503.076C337.55 503.055 337.634 503.039 337.696 503.026L337.998 504.357C337.897 504.395 337.757 504.433 337.577 504.47C337.397 504.512 337.169 504.533 336.893 504.533C336.474 504.533 336.064 504.443 335.662 504.263C335.264 504.083 334.934 503.809 334.67 503.44C334.41 503.072 334.28 502.607 334.28 502.047V492.452ZM340.051 504.407V494.763H341.533V504.407H340.051ZM340.804 493.155C340.516 493.155 340.267 493.057 340.057 492.86C339.852 492.664 339.75 492.427 339.75 492.151C339.75 491.874 339.852 491.638 340.057 491.441C340.267 491.244 340.516 491.146 340.804 491.146C341.093 491.146 341.34 491.244 341.545 491.441C341.755 491.638 341.859 491.874 341.859 492.151C341.859 492.427 341.755 492.664 341.545 492.86C341.34 493.057 341.093 493.155 340.804 493.155ZM348.165 504.608C347.294 504.608 346.53 504.401 345.873 503.987C345.22 503.572 344.709 502.993 344.341 502.247C343.977 501.502 343.795 500.632 343.795 499.635C343.795 498.631 343.977 497.754 344.341 497.004C344.709 496.255 345.22 495.673 345.873 495.259C346.53 494.844 347.294 494.637 348.165 494.637C349.036 494.637 349.798 494.844 350.451 495.259C351.108 495.673 351.619 496.255 351.983 497.004C352.351 497.754 352.535 498.631 352.535 499.635C352.535 500.632 352.351 501.502 351.983 502.247C351.619 502.993 351.108 503.572 350.451 503.987C349.798 504.401 349.036 504.608 348.165 504.608ZM348.165 503.277C348.826 503.277 349.371 503.108 349.798 502.769C350.225 502.43 350.541 501.984 350.746 501.431C350.951 500.879 351.053 500.28 351.053 499.635C351.053 498.991 350.951 498.39 350.746 497.833C350.541 497.277 350.225 496.827 349.798 496.483C349.371 496.14 348.826 495.968 348.165 495.968C347.504 495.968 346.959 496.14 346.532 496.483C346.106 496.827 345.789 497.277 345.584 497.833C345.379 498.39 345.277 498.991 345.277 499.635C345.277 500.28 345.379 500.879 345.584 501.431C345.789 501.984 346.106 502.43 346.532 502.769C346.959 503.108 347.504 503.277 348.165 503.277ZM356.279 498.606V504.407H354.797V494.763H356.229V496.27H356.355C356.581 495.78 356.924 495.387 357.384 495.089C357.845 494.788 358.439 494.637 359.168 494.637C359.821 494.637 360.392 494.771 360.882 495.039C361.371 495.303 361.752 495.705 362.024 496.245C362.297 496.781 362.433 497.459 362.433 498.279V504.407H360.951V498.38C360.951 497.622 360.754 497.032 360.361 496.609C359.967 496.182 359.427 495.968 358.741 495.968C358.268 495.968 357.845 496.071 357.472 496.276C357.104 496.481 356.813 496.781 356.599 497.174C356.386 497.567 356.279 498.045 356.279 498.606ZM370.088 504.407V503.277L374.333 498.631C374.831 498.087 375.241 497.614 375.564 497.212C375.886 496.806 376.125 496.425 376.28 496.069C376.439 495.709 376.518 495.332 376.518 494.939C376.518 494.487 376.409 494.095 376.192 493.764C375.978 493.434 375.685 493.178 375.313 492.998C374.94 492.818 374.521 492.728 374.057 492.728C373.563 492.728 373.132 492.831 372.763 493.036C372.399 493.237 372.116 493.52 371.916 493.884C371.719 494.248 371.62 494.675 371.62 495.165H370.139C370.139 494.411 370.312 493.75 370.66 493.181C371.007 492.611 371.48 492.168 372.079 491.849C372.682 491.531 373.358 491.372 374.107 491.372C374.86 491.372 375.528 491.531 376.11 491.849C376.692 492.168 377.148 492.597 377.479 493.137C377.81 493.677 377.975 494.277 377.975 494.939C377.975 495.412 377.889 495.874 377.717 496.326C377.55 496.774 377.257 497.274 376.838 497.827C376.424 498.375 375.848 499.045 375.112 499.836L372.223 502.926V503.026H378.201V504.407H370.088Z" fill="white"/>
<path d="M170.755 23.4722C174.108 23.4722 176.651 21.5854 176.651 18.6528C176.651 16.0483 174.621 14.7871 172.006 13.6387C169.996 12.7773 168.468 12.3159 168.468 11.0239C168.468 9.85498 169.678 8.91162 171.196 8.91162C172.396 8.91162 173.534 9.53711 174.046 10.6548L175.974 9.32178C175.297 7.50684 173.534 6.36865 171.175 6.36865C168.202 6.36865 165.854 8.25537 165.854 10.9624C165.854 13.5566 168.007 14.5615 169.945 15.4229C171.873 16.2534 174.046 17.1763 174.046 18.7041C174.046 19.9653 172.642 20.8574 170.786 20.8574C169.196 20.8574 167.822 20.1191 167.084 18.8271L165.033 20.2935C165.977 22.2007 168.038 23.4722 170.755 23.4722ZM188.73 9.21924V6.66602H178.886V23.1953H188.73V20.6113H181.48V16.0381H187.735V13.4541H181.48V9.21924H188.73ZM194.031 20.6113V6.66602H191.437V23.1953H201.404V20.6113H194.031ZM213.319 9.21924V6.66602H203.475V23.1953H213.319V20.6113H206.069V16.0381H212.324V13.4541H206.069V9.21924H213.319ZM223.809 23.4619C226.27 23.4619 228.084 22.3853 229.51 20.9805L228.013 18.8887C226.875 20.0166 225.418 20.8574 223.727 20.8574C220.763 20.8574 217.861 18.2837 217.861 14.9512C217.861 11.6392 220.722 9.01416 223.716 9.01416C225.336 9.01416 226.844 9.7832 228.002 10.9419L229.51 8.90137C227.89 7.32227 225.911 6.40967 223.768 6.37891C219.123 6.37891 215.236 10.2856 215.236 14.9409C215.236 19.6064 219.123 23.4619 223.809 23.4619ZM241.927 6.66602H230.463V9.23975H234.893V23.1953H237.498V9.23975H241.927V6.66602ZM261.687 23.1953H264.496L256.724 6.32764H256.57L248.797 23.1953H251.607L252.735 20.6831H260.559L261.687 23.1953ZM253.74 18.458L256.652 11.998L259.554 18.458H253.74ZM277.19 6.66602H272.484V23.1953H277.19C282.44 23.1953 285.711 20.0269 285.711 14.9512C285.711 9.83447 282.44 6.65576 277.19 6.66602ZM277.211 20.6113H275.068V9.23975H277.18C280.81 9.23975 283.086 11.4341 283.086 14.9409C283.086 18.4272 280.82 20.6113 277.211 20.6113ZM298.108 23.1953H300.918L293.146 6.32764H292.992L285.219 23.1953H288.029L289.157 20.6831H296.98L298.108 23.1953ZM290.162 18.458L293.074 11.998L295.976 18.458H290.162ZM303.297 23.1953H305.871V16.1304L311.356 6.66602H308.434L304.579 13.249L300.733 6.66602H297.811L303.297 16.1304V23.1953Z" fill="black"/>
<path d="M1 50.7622L472 48.7537" stroke="#DEDEDE"/>
</svg>
